G04*
G04 #@! TF.GenerationSoftware,Altium Limited,Altium Designer,18.1.7 (191)*
G04*
G04 Layer_Color=8388736*
%FSLAX44Y44*%
%MOMM*%
G71*
G01*
G75*
%ADD49R,0.5500X1.3000*%
%ADD59R,0.8032X0.8032*%
G04:AMPARAMS|DCode=60|XSize=1.7532mm|YSize=0.8732mm|CornerRadius=0.1351mm|HoleSize=0mm|Usage=FLASHONLY|Rotation=90.000|XOffset=0mm|YOffset=0mm|HoleType=Round|Shape=RoundedRectangle|*
%AMROUNDEDRECTD60*
21,1,1.7532,0.6030,0,0,90.0*
21,1,1.4830,0.8732,0,0,90.0*
1,1,0.2702,0.3015,0.7415*
1,1,0.2702,0.3015,-0.7415*
1,1,0.2702,-0.3015,-0.7415*
1,1,0.2702,-0.3015,0.7415*
%
%ADD60ROUNDEDRECTD60*%
%ADD61R,0.8032X0.8032*%
%ADD62R,0.5000X0.8500*%
%ADD63R,1.0032X0.6032*%
%ADD64R,0.6032X1.0032*%
%ADD65R,0.6032X0.6032*%
%ADD66R,1.2032X1.2032*%
%ADD67R,0.6000X1.3000*%
%ADD68R,0.8000X1.3000*%
%ADD69R,0.6500X1.3000*%
%ADD70R,1.1000X0.6500*%
%ADD71R,1.1032X1.1032*%
%ADD72R,1.1032X1.1032*%
%ADD73R,1.1032X1.0032*%
%ADD74R,1.9032X1.3532*%
%ADD75R,0.8332X0.5032*%
%ADD76R,0.5032X0.8332*%
%ADD77R,1.9532X1.9532*%
%ADD78R,1.4332X1.4332*%
%ADD79R,1.0032X0.5032*%
%ADD80R,0.5032X1.0032*%
G04:AMPARAMS|DCode=81|XSize=1.8mm|YSize=1.3mm|CornerRadius=0mm|HoleSize=0mm|Usage=FLASHONLY|Rotation=225.000|XOffset=0mm|YOffset=0mm|HoleType=Round|Shape=Rectangle|*
%AMROTATEDRECTD81*
4,1,4,0.1768,1.0960,1.0960,0.1768,-0.1768,-1.0960,-1.0960,-0.1768,0.1768,1.0960,0.0*
%
%ADD81ROTATEDRECTD81*%

G04:AMPARAMS|DCode=82|XSize=1.5mm|YSize=2mm|CornerRadius=0mm|HoleSize=0mm|Usage=FLASHONLY|Rotation=225.000|XOffset=0mm|YOffset=0mm|HoleType=Round|Shape=Rectangle|*
%AMROTATEDRECTD82*
4,1,4,-0.1768,1.2374,1.2374,-0.1768,0.1768,-1.2374,-1.2374,0.1768,-0.1768,1.2374,0.0*
%
%ADD82ROTATEDRECTD82*%

%ADD83P,1.1359X4X360.0*%
%ADD84P,1.1359X4X270.0*%
%ADD85R,2.7032X1.4032*%
%ADD86R,0.4500X0.7300*%
%ADD87R,0.6800X0.4000*%
%ADD88O,1.3500X0.3500*%
%ADD89C,0.3500*%
%ADD90O,1.3500X0.3500*%
%ADD91R,1.1032X1.5032*%
%ADD92C,0.3300*%
%ADD93R,3.8000X1.2000*%
%ADD94C,1.0032*%
%ADD95R,1.9500X3.2250*%
%ADD96R,0.6500X1.4000*%
%ADD97R,0.9000X1.6000*%
%ADD98R,1.0032X1.1032*%
%ADD99R,0.6532X1.7532*%
%ADD100R,0.7000X1.6000*%
%ADD101R,1.6000X2.4400*%
%ADD102R,3.7132X2.8232*%
G04:AMPARAMS|DCode=103|XSize=1.7532mm|YSize=0.8032mm|CornerRadius=0.1316mm|HoleSize=0mm|Usage=FLASHONLY|Rotation=270.000|XOffset=0mm|YOffset=0mm|HoleType=Round|Shape=RoundedRectangle|*
%AMROUNDEDRECTD103*
21,1,1.7532,0.5400,0,0,270.0*
21,1,1.4900,0.8032,0,0,270.0*
1,1,0.2632,-0.2700,-0.7450*
1,1,0.2632,-0.2700,0.7450*
1,1,0.2632,0.2700,0.7450*
1,1,0.2632,0.2700,-0.7450*
%
%ADD103ROUNDEDRECTD103*%
%ADD104R,0.4000X1.2000*%
%ADD105R,0.7000X1.2000*%
%ADD106C,1.6000*%
%ADD107R,1.6000X1.6000*%
%ADD108C,2.2032*%
%ADD109C,3.1000*%
G04:AMPARAMS|DCode=110|XSize=2.2032mm|YSize=2.2032mm|CornerRadius=0.6016mm|HoleSize=0mm|Usage=FLASHONLY|Rotation=0.000|XOffset=0mm|YOffset=0mm|HoleType=Round|Shape=RoundedRectangle|*
%AMROUNDEDRECTD110*
21,1,2.2032,1.0000,0,0,0.0*
21,1,1.0000,2.2032,0,0,0.0*
1,1,1.2032,0.5000,-0.5000*
1,1,1.2032,-0.5000,-0.5000*
1,1,1.2032,-0.5000,0.5000*
1,1,1.2032,0.5000,0.5000*
%
%ADD110ROUNDEDRECTD110*%
G04:AMPARAMS|DCode=111|XSize=2.2032mm|YSize=2.2032mm|CornerRadius=0.6016mm|HoleSize=0mm|Usage=FLASHONLY|Rotation=270.000|XOffset=0mm|YOffset=0mm|HoleType=Round|Shape=RoundedRectangle|*
%AMROUNDEDRECTD111*
21,1,2.2032,1.0000,0,0,270.0*
21,1,1.0000,2.2032,0,0,270.0*
1,1,1.2032,-0.5000,-0.5000*
1,1,1.2032,-0.5000,0.5000*
1,1,1.2032,0.5000,0.5000*
1,1,1.2032,0.5000,-0.5000*
%
%ADD111ROUNDEDRECTD111*%
%ADD112C,0.1000*%
%ADD113R,0.1000X0.1000*%
%ADD114O,1.1000X2.0000*%
%ADD115O,1.1000X1.6000*%
%ADD116C,4.1000*%
%ADD117C,1.7032*%
%ADD118O,1.8000X2.1000*%
%ADD119R,1.8000X2.1000*%
G36*
X194500Y444000D02*
Y432000D01*
X182500D01*
Y438000D01*
X182500D01*
X188500Y444000D01*
X194500D01*
D02*
G37*
D49*
X94250Y531875D02*
D03*
X932250D02*
D03*
D59*
X577900Y63300D02*
D03*
X577901Y52299D02*
D03*
X567000Y63300D02*
D03*
X567001Y52299D02*
D03*
X556000Y63300D02*
D03*
X556001Y52299D02*
D03*
X124001Y454999D02*
D03*
X124000Y466000D02*
D03*
X194499Y273001D02*
D03*
X194500Y262000D02*
D03*
X228499Y273001D02*
D03*
X228500Y262000D02*
D03*
X147501Y333499D02*
D03*
X147500Y344500D02*
D03*
X158500D02*
D03*
X158501Y333499D02*
D03*
X169499Y344501D02*
D03*
X169500Y333500D02*
D03*
X191499Y344276D02*
D03*
X191500Y333275D02*
D03*
X206999Y344501D02*
D03*
X207000Y333500D02*
D03*
X194499Y295001D02*
D03*
X194500Y284000D02*
D03*
X943999Y282719D02*
D03*
X944000Y271719D02*
D03*
X248999Y344501D02*
D03*
X249000Y333500D02*
D03*
X397999Y421001D02*
D03*
X398000Y410000D02*
D03*
X387001Y409999D02*
D03*
X387000Y421000D02*
D03*
X387001Y387999D02*
D03*
X387000Y399000D02*
D03*
X397999Y399001D02*
D03*
X398000Y388000D02*
D03*
X240999Y273001D02*
D03*
X241000Y262000D02*
D03*
X975502Y248875D02*
D03*
X975501Y259876D02*
D03*
X986501Y248875D02*
D03*
X986500Y259876D02*
D03*
X930499Y263001D02*
D03*
X930500Y252000D02*
D03*
X758501Y118499D02*
D03*
X758500Y129500D02*
D03*
X758502Y96499D02*
D03*
X758501Y107500D02*
D03*
X730000Y142000D02*
D03*
X729999Y153001D02*
D03*
X730001Y119999D02*
D03*
X730000Y131000D02*
D03*
X708999Y140501D02*
D03*
X709000Y129500D02*
D03*
X500001Y76499D02*
D03*
X500000Y87500D02*
D03*
X455749Y94401D02*
D03*
X455750Y83400D02*
D03*
X497499Y187001D02*
D03*
X497500Y176000D02*
D03*
X330500Y233500D02*
D03*
X330499Y244501D02*
D03*
X142001Y283999D02*
D03*
X142000Y295000D02*
D03*
X158999Y169501D02*
D03*
X159000Y158500D02*
D03*
X158999Y144565D02*
D03*
X159000Y133564D02*
D03*
X41001Y77999D02*
D03*
X41000Y89000D02*
D03*
X30001Y77999D02*
D03*
X30000Y89000D02*
D03*
X19000Y78000D02*
D03*
X18999Y89001D02*
D03*
X8001Y77999D02*
D03*
X8000Y89000D02*
D03*
X293500Y154000D02*
D03*
X293501Y142999D02*
D03*
X330500Y222500D02*
D03*
X330501Y211499D02*
D03*
X180500Y333500D02*
D03*
X180499Y344501D02*
D03*
X237999D02*
D03*
X238000Y333500D02*
D03*
D60*
X279000Y246000D02*
D03*
X266300Y246000D02*
D03*
X253600D02*
D03*
X240900D02*
D03*
X228200D02*
D03*
X291700D02*
D03*
X202800Y193000D02*
D03*
X215500D02*
D03*
X228200D02*
D03*
X240900Y193000D02*
D03*
X253600D02*
D03*
X266300Y193000D02*
D03*
X279000D02*
D03*
X291700D02*
D03*
X215500Y246000D02*
D03*
X202800D02*
D03*
D61*
X80001Y178251D02*
D03*
X69000Y178250D02*
D03*
X102001Y178251D02*
D03*
X91000Y178250D02*
D03*
X90999Y167249D02*
D03*
X102000Y167250D02*
D03*
X113289Y414998D02*
D03*
X124290Y414999D02*
D03*
X90999D02*
D03*
X102000Y415000D02*
D03*
X621001Y123631D02*
D03*
X610000Y123630D02*
D03*
X291001Y443501D02*
D03*
X280000Y443500D02*
D03*
X291001Y432501D02*
D03*
X280000Y432500D02*
D03*
X279999Y421499D02*
D03*
X291000Y421500D02*
D03*
X279999Y410499D02*
D03*
X291000Y410500D02*
D03*
X437001Y437001D02*
D03*
X426000Y437000D02*
D03*
X398001Y377001D02*
D03*
X387000Y377000D02*
D03*
X411499Y376723D02*
D03*
X422500Y376724D02*
D03*
X411499Y365499D02*
D03*
X422500Y365500D02*
D03*
X411538Y354499D02*
D03*
X422539Y354500D02*
D03*
X444501Y369537D02*
D03*
X433500Y369536D02*
D03*
X444501Y359001D02*
D03*
X433500Y359000D02*
D03*
X643901Y462401D02*
D03*
X632900Y462400D02*
D03*
X617501Y465501D02*
D03*
X606500Y465500D02*
D03*
X686999Y146999D02*
D03*
X698000Y147000D02*
D03*
X686999Y98999D02*
D03*
X698000Y99000D02*
D03*
X601602Y134501D02*
D03*
X590601Y134500D02*
D03*
X511001Y65501D02*
D03*
X500000Y65500D02*
D03*
X521999Y65499D02*
D03*
X533000Y65500D02*
D03*
X481999Y104499D02*
D03*
X493000Y104500D02*
D03*
X482001Y93501D02*
D03*
X471000Y93500D02*
D03*
X482001Y82501D02*
D03*
X471000Y82500D02*
D03*
X495800Y203001D02*
D03*
X484799Y203000D02*
D03*
X475499Y192499D02*
D03*
X486500Y192500D02*
D03*
X366499Y168499D02*
D03*
X377500Y168500D02*
D03*
X338499Y142999D02*
D03*
X349500Y143000D02*
D03*
X67501Y75001D02*
D03*
X56500Y75000D02*
D03*
X698000Y135750D02*
D03*
X686999Y135749D02*
D03*
X601500Y98000D02*
D03*
X590499Y97999D02*
D03*
X590500Y147000D02*
D03*
X601501Y147001D02*
D03*
X580400Y462400D02*
D03*
X591401Y462401D02*
D03*
D62*
X117315Y275000D02*
D03*
X123815D02*
D03*
X130315D02*
D03*
Y294500D02*
D03*
X117315D02*
D03*
D63*
X262500Y471000D02*
D03*
Y463000D02*
D03*
Y455000D02*
D03*
Y447000D02*
D03*
Y439000D02*
D03*
Y431000D02*
D03*
Y423000D02*
D03*
Y415000D02*
D03*
Y407000D02*
D03*
Y399000D02*
D03*
Y391000D02*
D03*
Y383000D02*
D03*
Y375000D02*
D03*
X144500D02*
D03*
Y383000D02*
D03*
Y391000D02*
D03*
Y399000D02*
D03*
Y407000D02*
D03*
Y415000D02*
D03*
Y423000D02*
D03*
Y431000D02*
D03*
Y439000D02*
D03*
Y447000D02*
D03*
Y455000D02*
D03*
Y463000D02*
D03*
Y471000D02*
D03*
D64*
X255500Y362500D02*
D03*
X247500D02*
D03*
X239500D02*
D03*
X231500D02*
D03*
X223500D02*
D03*
X215500D02*
D03*
X207500D02*
D03*
X199500D02*
D03*
X191500D02*
D03*
X183500D02*
D03*
X175500D02*
D03*
X167500D02*
D03*
X159500D02*
D03*
X151500D02*
D03*
X255500Y483500D02*
D03*
X247500D02*
D03*
X239500D02*
D03*
X231500D02*
D03*
X223500D02*
D03*
X215500D02*
D03*
X207500D02*
D03*
X199500D02*
D03*
X191500D02*
D03*
X183500D02*
D03*
X175500D02*
D03*
X167500D02*
D03*
X159500D02*
D03*
X151500D02*
D03*
D65*
X191500Y435000D02*
D03*
D66*
X203500Y438000D02*
D03*
X218500D02*
D03*
Y423000D02*
D03*
X203500D02*
D03*
X188500D02*
D03*
Y408000D02*
D03*
X203500D02*
D03*
X218500D02*
D03*
D67*
X115500Y531875D02*
D03*
X953500D02*
D03*
D68*
X104500D02*
D03*
X942500D02*
D03*
D69*
X84250D02*
D03*
X922250D02*
D03*
D70*
X118000Y531125D02*
D03*
X82000D02*
D03*
X956000D02*
D03*
X920000D02*
D03*
D71*
X111500Y469000D02*
D03*
Y452000D02*
D03*
X573400Y387900D02*
D03*
Y403900D02*
D03*
X587400Y387900D02*
D03*
Y403900D02*
D03*
X629400Y387900D02*
D03*
Y403900D02*
D03*
X643400Y387900D02*
D03*
Y403900D02*
D03*
D72*
X85000Y427500D02*
D03*
X102000D02*
D03*
X423000Y449500D02*
D03*
X440000Y449500D02*
D03*
X629900Y474900D02*
D03*
X646900D02*
D03*
X577400D02*
D03*
X594400D02*
D03*
X704000Y86500D02*
D03*
X687000Y86500D02*
D03*
X704000Y72500D02*
D03*
X687000D02*
D03*
X607500Y71500D02*
D03*
X590500D02*
D03*
X607500Y85500D02*
D03*
X590500D02*
D03*
X53500Y87500D02*
D03*
X70500D02*
D03*
D73*
X227000Y295500D02*
D03*
X207000Y286000D02*
D03*
Y305000D02*
D03*
X241000Y295500D02*
D03*
X261000Y305000D02*
D03*
Y286000D02*
D03*
D74*
X401500Y435750D02*
D03*
Y467250D02*
D03*
X462500Y419250D02*
D03*
X462500Y450750D02*
D03*
D75*
X445850Y400000D02*
D03*
Y405000D02*
D03*
X445850Y410000D02*
D03*
Y415000D02*
D03*
X418150D02*
D03*
Y410000D02*
D03*
X418150Y405000D02*
D03*
Y400000D02*
D03*
D76*
X439500Y421350D02*
D03*
X434500D02*
D03*
X429500D02*
D03*
X424500D02*
D03*
Y393650D02*
D03*
X429500Y393650D02*
D03*
X434500D02*
D03*
X439500D02*
D03*
D77*
X432000Y407500D02*
D03*
D78*
X641400Y435900D02*
D03*
X585400Y435900D02*
D03*
D79*
X655650Y443400D02*
D03*
X655650Y438400D02*
D03*
X655650Y433400D02*
D03*
Y428400D02*
D03*
X627150D02*
D03*
X627150Y433400D02*
D03*
Y438400D02*
D03*
X627150Y443400D02*
D03*
X599650D02*
D03*
Y438400D02*
D03*
Y433400D02*
D03*
X599650Y428400D02*
D03*
X571150D02*
D03*
X571150Y433400D02*
D03*
Y438400D02*
D03*
X571150Y443400D02*
D03*
D80*
X648900Y421650D02*
D03*
X643900D02*
D03*
X638900D02*
D03*
X633900D02*
D03*
X633900Y450150D02*
D03*
X638900D02*
D03*
X643900D02*
D03*
X648900Y450150D02*
D03*
X592900Y421650D02*
D03*
X587900D02*
D03*
X582900D02*
D03*
X577900D02*
D03*
Y450150D02*
D03*
X582900D02*
D03*
X587900D02*
D03*
X592900D02*
D03*
D81*
X748229Y392868D02*
D03*
X769442Y371655D02*
D03*
X790655Y350442D02*
D03*
X828132Y472771D02*
D03*
X849345Y451558D02*
D03*
X870558Y430345D02*
D03*
X748229Y170868D02*
D03*
X769442Y149655D02*
D03*
X790655Y128442D02*
D03*
X828132Y250771D02*
D03*
X849345Y229558D02*
D03*
X870558Y208345D02*
D03*
D82*
X751411Y420092D02*
D03*
X800908Y469589D02*
D03*
X839092Y332411D02*
D03*
X888589Y381908D02*
D03*
X751411Y198092D02*
D03*
X800908Y247589D02*
D03*
X839092Y110411D02*
D03*
X888589Y159908D02*
D03*
D83*
X842111Y486110D02*
D03*
X849889Y493889D02*
D03*
X724222Y369221D02*
D03*
X732000Y377000D02*
D03*
X708611Y353610D02*
D03*
X716389Y361389D02*
D03*
X767111Y327110D02*
D03*
X774889Y334889D02*
D03*
X751611Y311610D02*
D03*
X759389Y319389D02*
D03*
X801889Y289390D02*
D03*
X794111Y281611D02*
D03*
D84*
X708610Y384889D02*
D03*
X716389Y377111D02*
D03*
X802110Y304889D02*
D03*
X809889Y297111D02*
D03*
X825390Y281611D02*
D03*
X817611Y289389D02*
D03*
X897110Y213389D02*
D03*
X904889Y205611D02*
D03*
D85*
X919500Y332500D02*
D03*
Y289500D02*
D03*
D86*
X950500Y250350D02*
D03*
Y259650D02*
D03*
D87*
X944100Y250000D02*
D03*
Y255000D02*
D03*
Y260000D02*
D03*
X956900D02*
D03*
Y255000D02*
D03*
Y250000D02*
D03*
D88*
X956500Y230000D02*
D03*
Y225000D02*
D03*
D89*
X946500Y230000D02*
D03*
Y225000D02*
D03*
D90*
X936500Y230000D02*
D03*
Y225000D02*
D03*
D91*
X687001Y161501D02*
D03*
X708001D02*
D03*
X687001Y56501D02*
D03*
X708001D02*
D03*
X687001Y38501D02*
D03*
X708001D02*
D03*
X590501Y161501D02*
D03*
X611501D02*
D03*
X590001Y37501D02*
D03*
X611001D02*
D03*
X590001Y55501D02*
D03*
X611001D02*
D03*
D92*
X695000Y125500D02*
D03*
Y121500D02*
D03*
Y117500D02*
D03*
X691000Y125500D02*
D03*
X691000Y121500D02*
D03*
X691000Y117500D02*
D03*
X687000Y125500D02*
D03*
Y121500D02*
D03*
Y117500D02*
D03*
X598500Y124500D02*
D03*
Y120500D02*
D03*
Y116500D02*
D03*
X594500Y124500D02*
D03*
X594500Y120500D02*
D03*
X594500Y116500D02*
D03*
X590500Y124500D02*
D03*
X590500Y120500D02*
D03*
X590500Y116500D02*
D03*
D93*
X658000Y102000D02*
D03*
Y132000D02*
D03*
X561500Y101000D02*
D03*
X561500Y131000D02*
D03*
D94*
X622000Y139130D02*
D03*
X425000Y103878D02*
D03*
X103753Y319000D02*
D03*
X918000Y252000D02*
D03*
D95*
X516500Y41500D02*
D03*
D96*
X501500Y50620D02*
D03*
X531500D02*
D03*
X531500Y17620D02*
D03*
X501500D02*
D03*
D97*
X516500Y18620D02*
D03*
D98*
X342000Y178750D02*
D03*
X332500Y198750D02*
D03*
X351500D02*
D03*
X372000D02*
D03*
X378500Y181250D02*
D03*
X365500D02*
D03*
D99*
X462250Y120500D02*
D03*
X468750D02*
D03*
X475250D02*
D03*
X481750D02*
D03*
X455750Y120500D02*
D03*
X449250Y120500D02*
D03*
X442750D02*
D03*
X436250D02*
D03*
X429750D02*
D03*
X423250D02*
D03*
X416750D02*
D03*
X410250D02*
D03*
Y176500D02*
D03*
X416750D02*
D03*
X481750Y176500D02*
D03*
X475250Y176500D02*
D03*
X468750D02*
D03*
X462250D02*
D03*
X455750D02*
D03*
X449250D02*
D03*
X442750D02*
D03*
X436250D02*
D03*
X429750D02*
D03*
X423250D02*
D03*
D100*
X327500Y124200D02*
D03*
X316500D02*
D03*
X305500D02*
D03*
X294500D02*
D03*
X283500D02*
D03*
X272500D02*
D03*
X261500D02*
D03*
X250500D02*
D03*
X349500D02*
D03*
X338500D02*
D03*
D101*
X226800Y46500D02*
D03*
X370200D02*
D03*
D102*
X49501Y131866D02*
D03*
D103*
X30450Y159000D02*
D03*
X43150D02*
D03*
X55850D02*
D03*
X68550D02*
D03*
Y105000D02*
D03*
X55850D02*
D03*
X43150D02*
D03*
X30450D02*
D03*
D104*
X158500Y75250D02*
D03*
X153500D02*
D03*
X148500D02*
D03*
X143520D02*
D03*
X138500D02*
D03*
X133500D02*
D03*
X128500D02*
D03*
X123500D02*
D03*
D105*
X173000D02*
D03*
X165000D02*
D03*
X117000D02*
D03*
X109000D02*
D03*
D106*
X492000Y228000D02*
D03*
X482000Y248000D02*
D03*
X472000Y228000D02*
D03*
X462000Y248000D02*
D03*
X452000Y228000D02*
D03*
X442000Y248000D02*
D03*
X432000Y228000D02*
D03*
X422000Y248000D02*
D03*
X412000Y228000D02*
D03*
X402000Y248000D02*
D03*
X392000Y228000D02*
D03*
X382000Y248000D02*
D03*
X372000Y228000D02*
D03*
D107*
X362000Y248000D02*
D03*
D108*
X87500Y257100D02*
D03*
Y307900D02*
D03*
X15000Y331800D02*
D03*
X711900Y534600D02*
D03*
X737300D02*
D03*
X762700D02*
D03*
X686500D02*
D03*
X661100D02*
D03*
X711800Y502000D02*
D03*
X737200D02*
D03*
X762600D02*
D03*
X686400D02*
D03*
X661000D02*
D03*
X983000Y534900D02*
D03*
Y509500D02*
D03*
X665000Y78200D02*
D03*
X974100Y333500D02*
D03*
X1024900D02*
D03*
X891600Y496000D02*
D03*
X942400D02*
D03*
Y459500D02*
D03*
X891600D02*
D03*
X53500Y481600D02*
D03*
Y532400D02*
D03*
X17500D02*
D03*
Y481600D02*
D03*
X17000Y203500D02*
D03*
Y293500D02*
D03*
X52000Y203500D02*
D03*
Y293500D02*
D03*
X128553Y230000D02*
D03*
X179352D02*
D03*
X354400Y364500D02*
D03*
X303600Y364500D02*
D03*
X619600Y358500D02*
D03*
X670400D02*
D03*
X588415D02*
D03*
X537615D02*
D03*
X589400Y320000D02*
D03*
X538600D02*
D03*
X619700Y315000D02*
D03*
X670500D02*
D03*
D109*
X960000Y194000D02*
D03*
Y147000D02*
D03*
Y100000D02*
D03*
D110*
X15000Y357200D02*
D03*
X983000Y484100D02*
D03*
X665000Y52800D02*
D03*
D111*
X788100Y534600D02*
D03*
X788000Y502000D02*
D03*
D112*
X819647Y323572D02*
D03*
X897428Y401354D02*
D03*
X819647Y101572D02*
D03*
X897428Y179354D02*
D03*
D113*
X248500Y94700D02*
D03*
X348500D02*
D03*
D114*
X84800Y23750D02*
D03*
X197200D02*
D03*
D115*
Y63750D02*
D03*
X84800D02*
D03*
D116*
X183750Y106500D02*
D03*
X916250D02*
D03*
X1003500Y404950D02*
D03*
Y25000D02*
D03*
X33500D02*
D03*
Y405000D02*
D03*
D117*
X885000Y252000D02*
D03*
Y287000D02*
D03*
X603000Y506000D02*
D03*
X568000D02*
D03*
X432000Y504500D02*
D03*
X467000Y504500D02*
D03*
D118*
X457500Y313000D02*
D03*
X437500Y313000D02*
D03*
X417500Y313000D02*
D03*
X573000Y265000D02*
D03*
X593000D02*
D03*
X613000D02*
D03*
D119*
X397500Y313000D02*
D03*
X633000Y265000D02*
D03*
M02*
