  0
SECTION
  2
HEADER
  9
$ACADVER
  1
AC1009
  0
ENDSEC
  0
SECTION
  2
ENTITIES
  0
CIRCLE
  5
90
  8
Layer_1
  62
0
  10
296.47134
  20
33.503578
  30
0
  40
4.3000002
  0
CIRCLE
  5
90
  8
Layer_1
  62
0
  10
342.00436
  20
8.5035791
  30
0
  40
1
  0
CIRCLE
  5
90
  8
Layer_1
  62
0
  10
240.03833
  20
22.403618
  30
0
  40
6.5
  0
CIRCLE
  5
90
  8
Layer_1
  62
0
  10
123.4053
  20
33.503593
  30
0
  40
4.3000002
  0
CIRCLE
  5
90
  8
Layer_1
  62
0
  10
4.3719578
  20
8.5035944
  30
0
  40
1
  0
CIRCLE
  5
90
  8
Layer_1
  62
0
  10
240.03833
  20
44.6036
  30
0
  40
6.5
  0
CIRCLE
  5
90
  8
Layer_1
  62
0
  10
136.9053
  20
33.503593
  30
0
  40
0.94999999
  0
CIRCLE
  5
90
  8
Layer_1
  62
0
  10
342.00436
  20
58.503578
  30
0
  40
1
  0
CIRCLE
  5
90
  8
Layer_1
  62
0
  10
166.93831
  20
33.503593
  30
0
  40
0.5
  0
CIRCLE
  5
90
  8
Layer_1
  62
0
  10
282.97134
  20
33.503578
  30
0
  40
0.94999999
  0
CIRCLE
  5
90
  8
Layer_1
  62
0
  10
4.3719578
  20
58.503593
  30
0
  40
1
  0
CIRCLE
  5
90
  8
Layer_1
  62
0
  10
170.93831
  20
33.503593
  30
0
  40
0.5
  0
POLYLINE
  5
90
  8
Layer_1
  62
0
  66
1
  10
0
  20
0
  30
0
  0
VERTEX
  5
90
  8
Layer_1
  10
346.00467
  20
66.503571
  0
VERTEX
  5
91
  8
Layer_1
  10
346.00467
  20
0.50357509
  0
VERTEX
  5
92
  8
Layer_1
  10
0.37195757
  20
0.50359434
  0
VERTEX
  5
93
  8
Layer_1
  10
0.37196124
  20
66.503593
  0
VERTEX
  5
94
  8
Layer_1
  10
346.00467
  20
66.503571
  0
SEQEND
  0
POLYLINE
  5
96
  8
Layer_1
  62
0
  66
1
  10
0
  20
0
  30
0
  0
VERTEX
  5
96
  8
Layer_1
  10
176.13834
  20
15.903584
  0
VERTEX
  5
97
  8
Layer_1
  10
225.13834
  20
15.903582
  0
VERTEX
  5
98
  8
Layer_1
  10
225.13834
  20
51.10358
  0
VERTEX
  5
99
  8
Layer_1
  10
176.13834
  20
51.10358
  0
VERTEX
  5
9a
  8
Layer_1
  10
176.13834
  20
15.903584
  0
SEQEND
  0
POLYLINE
  5
9c
  8
Layer_1
  62
0
  66
1
  10
0
  20
0
  30
0
  0
VERTEX
  5
9c
  8
Layer_1
  10
254.93834
  20
15.841036
  42
-0.31769999
  0
VERTEX
  5
9d
  8
Layer_1
  10
251.13002
  20
17.189604
  42
-0.31769652
  0
VERTEX
  5
9e
  8
Layer_1
  10
251.13002
  20
21.229635
  42
-0.31769999
  0
VERTEX
  5
9f
  8
Layer_1
  10
254.93834
  20
22.578203
  42
-0.22806693
  0
VERTEX
  5
a0
  8
Layer_1
  10
256.86658
  20
20.58581
  42
-0.29315591
  0
VERTEX
  5
a1
  8
Layer_1
  10
256.00497
  20
16.490028
  42
-0.11083416
  0
VERTEX
  5
a2
  8
Layer_1
  10
254.93834
  20
15.841036
  0
SEQEND
  0
POLYLINE
  5
a4
  8
Layer_0
  62
4
  66
1
  10
0
  20
0
  30
0
  0
VERTEX
  5
a4
  8
Layer_0
  10
105.88848
  20
10.300018
  0
VERTEX
  5
a5
  8
Layer_0
  10
105.8885
  20
36.062271
  0
SEQEND
  0
POLYLINE
  5
a7
  8
Layer_0
  62
4
  66
1
  10
0
  20
0
  30
0
  0
VERTEX
  5
a7
  8
Layer_0
  10
105.8885
  20
41.214722
  0
VERTEX
  5
a8
  8
Layer_0
  10
105.8885
  20
66.976967
  0
SEQEND
  0
POLYLINE
  5
aa
  8
Layer_0
  62
4
  66
1
  10
0
  20
0
  30
0
  0
VERTEX
  5
aa
  8
Layer_0
  10
105.88848
  20
-0.0048828125
  0
VERTEX
  5
ab
  8
Layer_0
  10
105.88848
  20
5.1475677
  0
SEQEND
  0
POLYLINE
  5
ad
  8
Layer_0
  62
4
  66
1
  10
0
  20
0
  30
0
  0
VERTEX
  5
ad
  8
Layer_0
  10
102.88848
  20
10.300018
  0
VERTEX
  5
ae
  8
Layer_0
  10
102.8885
  20
36.062271
  0
SEQEND
  0
POLYLINE
  5
b0
  8
Layer_0
  62
4
  66
1
  10
0
  20
0
  30
0
  0
VERTEX
  5
b0
  8
Layer_0
  10
102.8885
  20
41.214722
  0
VERTEX
  5
b1
  8
Layer_0
  10
102.8885
  20
66.976967
  0
SEQEND
  0
POLYLINE
  5
b3
  8
Layer_0
  62
4
  66
1
  10
0
  20
0
  30
0
  0
VERTEX
  5
b3
  8
Layer_0
  10
102.88848
  20
-0.0048828125
  0
VERTEX
  5
b4
  8
Layer_0
  10
102.88848
  20
5.1475677
  0
SEQEND
  0
POLYLINE
  5
b6
  8
Layer_0
  62
4
  66
1
  10
0
  20
0
  30
0
  0
VERTEX
  5
b6
  8
Layer_0
  10
104.38848
  20
25.75737
  0
VERTEX
  5
b7
  8
Layer_0
  10
104.3885
  20
51.519615
  0
SEQEND
  0
POLYLINE
  5
b9
  8
Layer_0
  62
4
  66
1
  10
0
  20
0
  30
0
  0
VERTEX
  5
b9
  8
Layer_0
  10
104.3885
  20
56.672276
  0
VERTEX
  5
ba
  8
Layer_0
  10
104.3885
  20
67.011726
  0
SEQEND
  0
POLYLINE
  5
bc
  8
Layer_0
  62
4
  66
1
  10
0
  20
0
  30
0
  0
VERTEX
  5
bc
  8
Layer_0
  10
104.38848
  20
-0.0048828125
  0
VERTEX
  5
bd
  8
Layer_0
  10
104.38848
  20
20.604919
  0
SEQEND
  0
POLYLINE
  5
bf
  8
Layer_0
  62
4
  66
1
  10
0
  20
0
  30
0
  0
VERTEX
  5
bf
  8
Layer_0
  10
99.888481
  20
10.300018
  0
VERTEX
  5
c0
  8
Layer_0
  10
99.888496
  20
36.062271
  0
SEQEND
  0
POLYLINE
  5
c2
  8
Layer_0
  62
4
  66
1
  10
0
  20
0
  30
0
  0
VERTEX
  5
c2
  8
Layer_0
  10
99.888496
  20
41.214722
  0
VERTEX
  5
c3
  8
Layer_0
  10
99.888496
  20
66.976974
  0
SEQEND
  0
POLYLINE
  5
c5
  8
Layer_0
  62
4
  66
1
  10
0
  20
0
  30
0
  0
VERTEX
  5
c5
  8
Layer_0
  10
99.888481
  20
-0.0048828125
  0
VERTEX
  5
c6
  8
Layer_0
  10
99.888481
  20
5.1475677
  0
SEQEND
  0
POLYLINE
  5
c8
  8
Layer_0
  62
4
  66
1
  10
0
  20
0
  30
0
  0
VERTEX
  5
c8
  8
Layer_0
  10
101.38848
  20
25.75737
  0
VERTEX
  5
c9
  8
Layer_0
  10
101.3885
  20
51.519615
  0
SEQEND
  0
POLYLINE
  5
cb
  8
Layer_0
  62
4
  66
1
  10
0
  20
0
  30
0
  0
VERTEX
  5
cb
  8
Layer_0
  10
101.3885
  20
56.672276
  0
VERTEX
  5
cc
  8
Layer_0
  10
101.3885
  20
67.011726
  0
SEQEND
  0
POLYLINE
  5
ce
  8
Layer_0
  62
4
  66
1
  10
0
  20
0
  30
0
  0
VERTEX
  5
ce
  8
Layer_0
  10
101.38848
  20
-0.0048828125
  0
VERTEX
  5
cf
  8
Layer_0
  10
101.38848
  20
20.604919
  0
SEQEND
  0
POLYLINE
  5
d1
  8
Layer_0
  62
4
  66
1
  10
0
  20
0
  30
0
  0
VERTEX
  5
d1
  8
Layer_0
  10
96.888481
  20
10.300018
  0
VERTEX
  5
d2
  8
Layer_0
  10
96.888496
  20
36.062271
  0
SEQEND
  0
POLYLINE
  5
d4
  8
Layer_0
  62
4
  66
1
  10
0
  20
0
  30
0
  0
VERTEX
  5
d4
  8
Layer_0
  10
96.888496
  20
41.214722
  0
VERTEX
  5
d5
  8
Layer_0
  10
96.888496
  20
66.976974
  0
SEQEND
  0
POLYLINE
  5
d7
  8
Layer_0
  62
4
  66
1
  10
0
  20
0
  30
0
  0
VERTEX
  5
d7
  8
Layer_0
  10
96.888481
  20
-0.0048828125
  0
VERTEX
  5
d8
  8
Layer_0
  10
96.888481
  20
5.1475677
  0
SEQEND
  0
POLYLINE
  5
da
  8
Layer_0
  62
4
  66
1
  10
0
  20
0
  30
0
  0
VERTEX
  5
da
  8
Layer_0
  10
98.388481
  20
25.75737
  0
VERTEX
  5
db
  8
Layer_0
  10
98.388496
  20
51.519619
  0
SEQEND
  0
POLYLINE
  5
dd
  8
Layer_0
  62
4
  66
1
  10
0
  20
0
  30
0
  0
VERTEX
  5
dd
  8
Layer_0
  10
98.388496
  20
56.672276
  0
VERTEX
  5
de
  8
Layer_0
  10
98.388496
  20
67.011726
  0
SEQEND
  0
POLYLINE
  5
e0
  8
Layer_0
  62
4
  66
1
  10
0
  20
0
  30
0
  0
VERTEX
  5
e0
  8
Layer_0
  10
98.388481
  20
-0.0048828125
  0
VERTEX
  5
e1
  8
Layer_0
  10
98.388481
  20
20.604919
  0
SEQEND
  0
POLYLINE
  5
e3
  8
Layer_0
  62
4
  66
1
  10
0
  20
0
  30
0
  0
VERTEX
  5
e3
  8
Layer_0
  10
93.888481
  20
10.300018
  0
VERTEX
  5
e4
  8
Layer_0
  10
93.888496
  20
36.062271
  0
SEQEND
  0
POLYLINE
  5
e6
  8
Layer_0
  62
4
  66
1
  10
0
  20
0
  30
0
  0
VERTEX
  5
e6
  8
Layer_0
  10
93.888496
  20
41.214722
  0
VERTEX
  5
e7
  8
Layer_0
  10
93.888496
  20
66.976974
  0
SEQEND
  0
POLYLINE
  5
e9
  8
Layer_0
  62
4
  66
1
  10
0
  20
0
  30
0
  0
VERTEX
  5
e9
  8
Layer_0
  10
93.888481
  20
-0.0048828125
  0
VERTEX
  5
ea
  8
Layer_0
  10
93.888481
  20
5.1475677
  0
SEQEND
  0
POLYLINE
  5
ec
  8
Layer_0
  62
4
  66
1
  10
0
  20
0
  30
0
  0
VERTEX
  5
ec
  8
Layer_0
  10
95.388481
  20
25.75737
  0
VERTEX
  5
ed
  8
Layer_0
  10
95.388496
  20
51.519619
  0
SEQEND
  0
POLYLINE
  5
ef
  8
Layer_0
  62
4
  66
1
  10
0
  20
0
  30
0
  0
VERTEX
  5
ef
  8
Layer_0
  10
95.388496
  20
56.672279
  0
VERTEX
  5
f0
  8
Layer_0
  10
95.388496
  20
67.011726
  0
SEQEND
  0
POLYLINE
  5
f2
  8
Layer_0
  62
4
  66
1
  10
0
  20
0
  30
0
  0
VERTEX
  5
f2
  8
Layer_0
  10
95.388481
  20
-0.0048828125
  0
VERTEX
  5
f3
  8
Layer_0
  10
95.388481
  20
20.604919
  0
SEQEND
  0
POLYLINE
  5
f5
  8
Layer_0
  62
4
  66
1
  10
0
  20
0
  30
0
  0
VERTEX
  5
f5
  8
Layer_0
  10
90.888481
  20
10.300018
  0
VERTEX
  5
f6
  8
Layer_0
  10
90.888496
  20
36.062271
  0
SEQEND
  0
POLYLINE
  5
f8
  8
Layer_0
  62
4
  66
1
  10
0
  20
0
  30
0
  0
VERTEX
  5
f8
  8
Layer_0
  10
90.888496
  20
41.214722
  0
VERTEX
  5
f9
  8
Layer_0
  10
90.888496
  20
66.976974
  0
SEQEND
  0
POLYLINE
  5
fb
  8
Layer_0
  62
4
  66
1
  10
0
  20
0
  30
0
  0
VERTEX
  5
fb
  8
Layer_0
  10
90.888481
  20
-0.0048828125
  0
VERTEX
  5
fc
  8
Layer_0
  10
90.888481
  20
5.1475677
  0
SEQEND
  0
POLYLINE
  5
fe
  8
Layer_0
  62
4
  66
1
  10
0
  20
0
  30
0
  0
VERTEX
  5
fe
  8
Layer_0
  10
92.388481
  20
25.75737
  0
VERTEX
  5
ff
  8
Layer_0
  10
92.388496
  20
51.519619
  0
SEQEND
  0
POLYLINE
  5
101
  8
Layer_0
  62
4
  66
1
  10
0
  20
0
  30
0
  0
VERTEX
  5
101
  8
Layer_0
  10
92.388496
  20
56.672279
  0
VERTEX
  5
102
  8
Layer_0
  10
92.388496
  20
67.011726
  0
SEQEND
  0
POLYLINE
  5
104
  8
Layer_0
  62
4
  66
1
  10
0
  20
0
  30
0
  0
VERTEX
  5
104
  8
Layer_0
  10
92.388481
  20
-0.0048828125
  0
VERTEX
  5
105
  8
Layer_0
  10
92.388481
  20
20.604919
  0
SEQEND
  0
POLYLINE
  5
107
  8
Layer_0
  62
4
  66
1
  10
0
  20
0
  30
0
  0
VERTEX
  5
107
  8
Layer_0
  10
87.888481
  20
10.300018
  0
VERTEX
  5
108
  8
Layer_0
  10
87.888496
  20
36.062271
  0
SEQEND
  0
POLYLINE
  5
10a
  8
Layer_0
  62
4
  66
1
  10
0
  20
0
  30
0
  0
VERTEX
  5
10a
  8
Layer_0
  10
87.888496
  20
41.214722
  0
VERTEX
  5
10b
  8
Layer_0
  10
87.888496
  20
66.976974
  0
SEQEND
  0
POLYLINE
  5
10d
  8
Layer_0
  62
4
  66
1
  10
0
  20
0
  30
0
  0
VERTEX
  5
10d
  8
Layer_0
  10
87.888481
  20
-0.0048828125
  0
VERTEX
  5
10e
  8
Layer_0
  10
87.888481
  20
5.1475677
  0
SEQEND
  0
POLYLINE
  5
110
  8
Layer_0
  62
4
  66
1
  10
0
  20
0
  30
0
  0
VERTEX
  5
110
  8
Layer_0
  10
89.388481
  20
25.75737
  0
VERTEX
  5
111
  8
Layer_0
  10
89.388496
  20
51.519619
  0
SEQEND
  0
POLYLINE
  5
113
  8
Layer_0
  62
4
  66
1
  10
0
  20
0
  30
0
  0
VERTEX
  5
113
  8
Layer_0
  10
89.388496
  20
56.672279
  0
VERTEX
  5
114
  8
Layer_0
  10
89.388496
  20
67.011726
  0
SEQEND
  0
POLYLINE
  5
116
  8
Layer_0
  62
4
  66
1
  10
0
  20
0
  30
0
  0
VERTEX
  5
116
  8
Layer_0
  10
89.388481
  20
-0.0048828125
  0
VERTEX
  5
117
  8
Layer_0
  10
89.388481
  20
20.604919
  0
SEQEND
  0
POLYLINE
  5
119
  8
Layer_0
  62
4
  66
1
  10
0
  20
0
  30
0
  0
VERTEX
  5
119
  8
Layer_0
  10
84.888481
  20
10.300018
  0
VERTEX
  5
11a
  8
Layer_0
  10
84.888496
  20
36.062271
  0
SEQEND
  0
POLYLINE
  5
11c
  8
Layer_0
  62
4
  66
1
  10
0
  20
0
  30
0
  0
VERTEX
  5
11c
  8
Layer_0
  10
84.888496
  20
41.214722
  0
VERTEX
  5
11d
  8
Layer_0
  10
84.888496
  20
66.976974
  0
SEQEND
  0
POLYLINE
  5
11f
  8
Layer_0
  62
4
  66
1
  10
0
  20
0
  30
0
  0
VERTEX
  5
11f
  8
Layer_0
  10
84.888481
  20
-0.0048828125
  0
VERTEX
  5
120
  8
Layer_0
  10
84.888481
  20
5.1475677
  0
SEQEND
  0
POLYLINE
  5
122
  8
Layer_0
  62
4
  66
1
  10
0
  20
0
  30
0
  0
VERTEX
  5
122
  8
Layer_0
  10
86.388481
  20
25.75737
  0
VERTEX
  5
123
  8
Layer_0
  10
86.388496
  20
51.519619
  0
SEQEND
  0
POLYLINE
  5
125
  8
Layer_0
  62
4
  66
1
  10
0
  20
0
  30
0
  0
VERTEX
  5
125
  8
Layer_0
  10
86.388496
  20
56.672279
  0
VERTEX
  5
126
  8
Layer_0
  10
86.388496
  20
67.011726
  0
SEQEND
  0
POLYLINE
  5
128
  8
Layer_0
  62
4
  66
1
  10
0
  20
0
  30
0
  0
VERTEX
  5
128
  8
Layer_0
  10
86.388481
  20
-0.0048828125
  0
VERTEX
  5
129
  8
Layer_0
  10
86.388481
  20
20.604919
  0
SEQEND
  0
POLYLINE
  5
12b
  8
Layer_0
  62
4
  66
1
  10
0
  20
0
  30
0
  0
VERTEX
  5
12b
  8
Layer_0
  10
81.888481
  20
10.300018
  0
VERTEX
  5
12c
  8
Layer_0
  10
81.888496
  20
36.062271
  0
SEQEND
  0
POLYLINE
  5
12e
  8
Layer_0
  62
4
  66
1
  10
0
  20
0
  30
0
  0
VERTEX
  5
12e
  8
Layer_0
  10
81.888496
  20
41.214722
  0
VERTEX
  5
12f
  8
Layer_0
  10
81.888496
  20
66.976974
  0
SEQEND
  0
POLYLINE
  5
131
  8
Layer_0
  62
4
  66
1
  10
0
  20
0
  30
0
  0
VERTEX
  5
131
  8
Layer_0
  10
81.888481
  20
-0.0048828125
  0
VERTEX
  5
132
  8
Layer_0
  10
81.888481
  20
5.1475677
  0
SEQEND
  0
POLYLINE
  5
134
  8
Layer_0
  62
4
  66
1
  10
0
  20
0
  30
0
  0
VERTEX
  5
134
  8
Layer_0
  10
83.388481
  20
25.75737
  0
VERTEX
  5
135
  8
Layer_0
  10
83.388496
  20
51.519619
  0
SEQEND
  0
POLYLINE
  5
137
  8
Layer_0
  62
4
  66
1
  10
0
  20
0
  30
0
  0
VERTEX
  5
137
  8
Layer_0
  10
83.388496
  20
56.672588
  0
VERTEX
  5
138
  8
Layer_0
  10
83.388496
  20
66.951492
  0
SEQEND
  0
POLYLINE
  5
13a
  8
Layer_0
  62
4
  66
1
  10
0
  20
0
  30
0
  0
VERTEX
  5
13a
  8
Layer_0
  10
83.388481
  20
-0.0048828125
  0
VERTEX
  5
13b
  8
Layer_0
  10
83.388481
  20
20.604919
  0
SEQEND
  0
POLYLINE
  5
13d
  8
Layer_0
  62
4
  66
1
  10
0
  20
0
  30
0
  0
VERTEX
  5
13d
  8
Layer_0
  10
164.92169
  20
10.300018
  0
VERTEX
  5
13e
  8
Layer_0
  10
164.92171
  20
36.062271
  0
SEQEND
  0
POLYLINE
  5
140
  8
Layer_0
  62
4
  66
1
  10
0
  20
0
  30
0
  0
VERTEX
  5
140
  8
Layer_0
  10
164.92171
  20
41.214722
  0
VERTEX
  5
141
  8
Layer_0
  10
164.92171
  20
66.976967
  0
SEQEND
  0
POLYLINE
  5
143
  8
Layer_0
  62
4
  66
1
  10
0
  20
0
  30
0
  0
VERTEX
  5
143
  8
Layer_0
  10
164.92169
  20
-0.0048828125
  0
VERTEX
  5
144
  8
Layer_0
  10
164.92169
  20
5.1475677
  0
SEQEND
  0
POLYLINE
  5
146
  8
Layer_0
  62
4
  66
1
  10
0
  20
0
  30
0
  0
VERTEX
  5
146
  8
Layer_0
  10
161.92169
  20
10.300018
  0
VERTEX
  5
147
  8
Layer_0
  10
161.92171
  20
36.062271
  0
SEQEND
  0
POLYLINE
  5
149
  8
Layer_0
  62
4
  66
1
  10
0
  20
0
  30
0
  0
VERTEX
  5
149
  8
Layer_0
  10
161.92171
  20
41.214722
  0
VERTEX
  5
14a
  8
Layer_0
  10
161.92171
  20
66.976967
  0
SEQEND
  0
POLYLINE
  5
14c
  8
Layer_0
  62
4
  66
1
  10
0
  20
0
  30
0
  0
VERTEX
  5
14c
  8
Layer_0
  10
161.92169
  20
-0.0048828125
  0
VERTEX
  5
14d
  8
Layer_0
  10
161.92169
  20
5.1475677
  0
SEQEND
  0
POLYLINE
  5
14f
  8
Layer_0
  62
4
  66
1
  10
0
  20
0
  30
0
  0
VERTEX
  5
14f
  8
Layer_0
  10
163.42169
  20
25.75737
  0
VERTEX
  5
150
  8
Layer_0
  10
163.42171
  20
51.519615
  0
SEQEND
  0
POLYLINE
  5
152
  8
Layer_0
  62
4
  66
1
  10
0
  20
0
  30
0
  0
VERTEX
  5
152
  8
Layer_0
  10
163.42171
  20
56.672276
  0
VERTEX
  5
153
  8
Layer_0
  10
163.42171
  20
67.011726
  0
SEQEND
  0
POLYLINE
  5
155
  8
Layer_0
  62
4
  66
1
  10
0
  20
0
  30
0
  0
VERTEX
  5
155
  8
Layer_0
  10
163.42169
  20
-0.0048828125
  0
VERTEX
  5
156
  8
Layer_0
  10
163.42169
  20
20.604919
  0
SEQEND
  0
POLYLINE
  5
158
  8
Layer_0
  62
4
  66
1
  10
0
  20
0
  30
0
  0
VERTEX
  5
158
  8
Layer_0
  10
158.92169
  20
10.300018
  0
VERTEX
  5
159
  8
Layer_0
  10
158.92171
  20
36.062271
  0
SEQEND
  0
POLYLINE
  5
15b
  8
Layer_0
  62
4
  66
1
  10
0
  20
0
  30
0
  0
VERTEX
  5
15b
  8
Layer_0
  10
158.92171
  20
41.214722
  0
VERTEX
  5
15c
  8
Layer_0
  10
158.92171
  20
66.976974
  0
SEQEND
  0
POLYLINE
  5
15e
  8
Layer_0
  62
4
  66
1
  10
0
  20
0
  30
0
  0
VERTEX
  5
15e
  8
Layer_0
  10
158.92169
  20
-0.0048828125
  0
VERTEX
  5
15f
  8
Layer_0
  10
158.92169
  20
5.1475677
  0
SEQEND
  0
POLYLINE
  5
161
  8
Layer_0
  62
4
  66
1
  10
0
  20
0
  30
0
  0
VERTEX
  5
161
  8
Layer_0
  10
160.42169
  20
25.75737
  0
VERTEX
  5
162
  8
Layer_0
  10
160.42171
  20
51.519615
  0
SEQEND
  0
POLYLINE
  5
164
  8
Layer_0
  62
4
  66
1
  10
0
  20
0
  30
0
  0
VERTEX
  5
164
  8
Layer_0
  10
160.42171
  20
56.672276
  0
VERTEX
  5
165
  8
Layer_0
  10
160.42171
  20
67.011726
  0
SEQEND
  0
POLYLINE
  5
167
  8
Layer_0
  62
4
  66
1
  10
0
  20
0
  30
0
  0
VERTEX
  5
167
  8
Layer_0
  10
160.42169
  20
-0.0048828125
  0
VERTEX
  5
168
  8
Layer_0
  10
160.42169
  20
20.604919
  0
SEQEND
  0
POLYLINE
  5
16a
  8
Layer_0
  62
4
  66
1
  10
0
  20
0
  30
0
  0
VERTEX
  5
16a
  8
Layer_0
  10
155.92169
  20
10.300018
  0
VERTEX
  5
16b
  8
Layer_0
  10
155.92171
  20
36.062271
  0
SEQEND
  0
POLYLINE
  5
16d
  8
Layer_0
  62
4
  66
1
  10
0
  20
0
  30
0
  0
VERTEX
  5
16d
  8
Layer_0
  10
155.92171
  20
41.214722
  0
VERTEX
  5
16e
  8
Layer_0
  10
155.92171
  20
66.976974
  0
SEQEND
  0
POLYLINE
  5
170
  8
Layer_0
  62
4
  66
1
  10
0
  20
0
  30
0
  0
VERTEX
  5
170
  8
Layer_0
  10
155.92169
  20
-0.0048828125
  0
VERTEX
  5
171
  8
Layer_0
  10
155.92169
  20
5.1475677
  0
SEQEND
  0
POLYLINE
  5
173
  8
Layer_0
  62
4
  66
1
  10
0
  20
0
  30
0
  0
VERTEX
  5
173
  8
Layer_0
  10
157.42169
  20
25.75737
  0
VERTEX
  5
174
  8
Layer_0
  10
157.42171
  20
51.519619
  0
SEQEND
  0
POLYLINE
  5
176
  8
Layer_0
  62
4
  66
1
  10
0
  20
0
  30
0
  0
VERTEX
  5
176
  8
Layer_0
  10
157.42171
  20
56.672276
  0
VERTEX
  5
177
  8
Layer_0
  10
157.42171
  20
67.011726
  0
SEQEND
  0
POLYLINE
  5
179
  8
Layer_0
  62
4
  66
1
  10
0
  20
0
  30
0
  0
VERTEX
  5
179
  8
Layer_0
  10
157.42169
  20
-0.0048828125
  0
VERTEX
  5
17a
  8
Layer_0
  10
157.42169
  20
20.604919
  0
SEQEND
  0
POLYLINE
  5
17c
  8
Layer_0
  62
4
  66
1
  10
0
  20
0
  30
0
  0
VERTEX
  5
17c
  8
Layer_0
  10
152.92169
  20
10.300018
  0
VERTEX
  5
17d
  8
Layer_0
  10
152.92171
  20
36.062271
  0
SEQEND
  0
POLYLINE
  5
17f
  8
Layer_0
  62
4
  66
1
  10
0
  20
0
  30
0
  0
VERTEX
  5
17f
  8
Layer_0
  10
152.92171
  20
41.214722
  0
VERTEX
  5
180
  8
Layer_0
  10
152.92171
  20
66.976974
  0
SEQEND
  0
POLYLINE
  5
182
  8
Layer_0
  62
4
  66
1
  10
0
  20
0
  30
0
  0
VERTEX
  5
182
  8
Layer_0
  10
152.92169
  20
-0.0048828125
  0
VERTEX
  5
183
  8
Layer_0
  10
152.92169
  20
5.1475677
  0
SEQEND
  0
POLYLINE
  5
185
  8
Layer_0
  62
4
  66
1
  10
0
  20
0
  30
0
  0
VERTEX
  5
185
  8
Layer_0
  10
154.42169
  20
25.75737
  0
VERTEX
  5
186
  8
Layer_0
  10
154.42171
  20
51.519619
  0
SEQEND
  0
POLYLINE
  5
188
  8
Layer_0
  62
4
  66
1
  10
0
  20
0
  30
0
  0
VERTEX
  5
188
  8
Layer_0
  10
154.42171
  20
56.672279
  0
VERTEX
  5
189
  8
Layer_0
  10
154.42171
  20
67.011726
  0
SEQEND
  0
POLYLINE
  5
18b
  8
Layer_0
  62
4
  66
1
  10
0
  20
0
  30
0
  0
VERTEX
  5
18b
  8
Layer_0
  10
154.42169
  20
-0.0048828125
  0
VERTEX
  5
18c
  8
Layer_0
  10
154.42169
  20
20.604919
  0
SEQEND
  0
POLYLINE
  5
18e
  8
Layer_0
  62
4
  66
1
  10
0
  20
0
  30
0
  0
VERTEX
  5
18e
  8
Layer_0
  10
149.92169
  20
10.300018
  0
VERTEX
  5
18f
  8
Layer_0
  10
149.92171
  20
36.062271
  0
SEQEND
  0
POLYLINE
  5
191
  8
Layer_0
  62
4
  66
1
  10
0
  20
0
  30
0
  0
VERTEX
  5
191
  8
Layer_0
  10
149.92171
  20
41.214722
  0
VERTEX
  5
192
  8
Layer_0
  10
149.92171
  20
66.976974
  0
SEQEND
  0
POLYLINE
  5
194
  8
Layer_0
  62
4
  66
1
  10
0
  20
0
  30
0
  0
VERTEX
  5
194
  8
Layer_0
  10
149.92169
  20
-0.0048828125
  0
VERTEX
  5
195
  8
Layer_0
  10
149.92169
  20
5.1475677
  0
SEQEND
  0
POLYLINE
  5
197
  8
Layer_0
  62
4
  66
1
  10
0
  20
0
  30
0
  0
VERTEX
  5
197
  8
Layer_0
  10
151.42169
  20
25.75737
  0
VERTEX
  5
198
  8
Layer_0
  10
151.42171
  20
51.519619
  0
SEQEND
  0
POLYLINE
  5
19a
  8
Layer_0
  62
4
  66
1
  10
0
  20
0
  30
0
  0
VERTEX
  5
19a
  8
Layer_0
  10
151.42171
  20
56.672279
  0
VERTEX
  5
19b
  8
Layer_0
  10
151.42171
  20
67.011726
  0
SEQEND
  0
POLYLINE
  5
19d
  8
Layer_0
  62
4
  66
1
  10
0
  20
0
  30
0
  0
VERTEX
  5
19d
  8
Layer_0
  10
151.42169
  20
-0.0048828125
  0
VERTEX
  5
19e
  8
Layer_0
  10
151.42169
  20
20.604919
  0
SEQEND
  0
POLYLINE
  5
1a0
  8
Layer_0
  62
4
  66
1
  10
0
  20
0
  30
0
  0
VERTEX
  5
1a0
  8
Layer_0
  10
146.92169
  20
10.300018
  0
VERTEX
  5
1a1
  8
Layer_0
  10
146.92171
  20
36.062271
  0
SEQEND
  0
POLYLINE
  5
1a3
  8
Layer_0
  62
4
  66
1
  10
0
  20
0
  30
0
  0
VERTEX
  5
1a3
  8
Layer_0
  10
146.92171
  20
41.214722
  0
VERTEX
  5
1a4
  8
Layer_0
  10
146.92171
  20
66.976974
  0
SEQEND
  0
POLYLINE
  5
1a6
  8
Layer_0
  62
4
  66
1
  10
0
  20
0
  30
0
  0
VERTEX
  5
1a6
  8
Layer_0
  10
146.92169
  20
-0.0048828125
  0
VERTEX
  5
1a7
  8
Layer_0
  10
146.92169
  20
5.1475677
  0
SEQEND
  0
POLYLINE
  5
1a9
  8
Layer_0
  62
4
  66
1
  10
0
  20
0
  30
0
  0
VERTEX
  5
1a9
  8
Layer_0
  10
148.42169
  20
25.75737
  0
VERTEX
  5
1aa
  8
Layer_0
  10
148.42171
  20
51.519619
  0
SEQEND
  0
POLYLINE
  5
1ac
  8
Layer_0
  62
4
  66
1
  10
0
  20
0
  30
0
  0
VERTEX
  5
1ac
  8
Layer_0
  10
148.42171
  20
56.672279
  0
VERTEX
  5
1ad
  8
Layer_0
  10
148.42171
  20
67.011726
  0
SEQEND
  0
POLYLINE
  5
1af
  8
Layer_0
  62
4
  66
1
  10
0
  20
0
  30
0
  0
VERTEX
  5
1af
  8
Layer_0
  10
148.42169
  20
-0.0048828125
  0
VERTEX
  5
1b0
  8
Layer_0
  10
148.42169
  20
20.604919
  0
SEQEND
  0
POLYLINE
  5
1b2
  8
Layer_0
  62
4
  66
1
  10
0
  20
0
  30
0
  0
VERTEX
  5
1b2
  8
Layer_0
  10
143.92169
  20
10.300018
  0
VERTEX
  5
1b3
  8
Layer_0
  10
143.92171
  20
36.062271
  0
SEQEND
  0
POLYLINE
  5
1b5
  8
Layer_0
  62
4
  66
1
  10
0
  20
0
  30
0
  0
VERTEX
  5
1b5
  8
Layer_0
  10
143.92171
  20
41.214722
  0
VERTEX
  5
1b6
  8
Layer_0
  10
143.92171
  20
66.976974
  0
SEQEND
  0
POLYLINE
  5
1b8
  8
Layer_0
  62
4
  66
1
  10
0
  20
0
  30
0
  0
VERTEX
  5
1b8
  8
Layer_0
  10
143.92169
  20
-0.0048828125
  0
VERTEX
  5
1b9
  8
Layer_0
  10
143.92169
  20
5.1475677
  0
SEQEND
  0
POLYLINE
  5
1bb
  8
Layer_0
  62
4
  66
1
  10
0
  20
0
  30
0
  0
VERTEX
  5
1bb
  8
Layer_0
  10
145.42169
  20
25.75737
  0
VERTEX
  5
1bc
  8
Layer_0
  10
145.42171
  20
51.519619
  0
SEQEND
  0
POLYLINE
  5
1be
  8
Layer_0
  62
4
  66
1
  10
0
  20
0
  30
0
  0
VERTEX
  5
1be
  8
Layer_0
  10
145.42171
  20
56.672279
  0
VERTEX
  5
1bf
  8
Layer_0
  10
145.42171
  20
67.011726
  0
SEQEND
  0
POLYLINE
  5
1c1
  8
Layer_0
  62
4
  66
1
  10
0
  20
0
  30
0
  0
VERTEX
  5
1c1
  8
Layer_0
  10
145.42169
  20
-0.0048828125
  0
VERTEX
  5
1c2
  8
Layer_0
  10
145.42169
  20
20.604919
  0
SEQEND
  0
POLYLINE
  5
1c4
  8
Layer_0
  62
4
  66
1
  10
0
  20
0
  30
0
  0
VERTEX
  5
1c4
  8
Layer_0
  10
140.92169
  20
10.300018
  0
VERTEX
  5
1c5
  8
Layer_0
  10
140.92171
  20
36.062271
  0
SEQEND
  0
POLYLINE
  5
1c7
  8
Layer_0
  62
4
  66
1
  10
0
  20
0
  30
0
  0
VERTEX
  5
1c7
  8
Layer_0
  10
140.92171
  20
41.214722
  0
VERTEX
  5
1c8
  8
Layer_0
  10
140.92171
  20
66.976974
  0
SEQEND
  0
POLYLINE
  5
1ca
  8
Layer_0
  62
4
  66
1
  10
0
  20
0
  30
0
  0
VERTEX
  5
1ca
  8
Layer_0
  10
140.92169
  20
-0.0048828125
  0
VERTEX
  5
1cb
  8
Layer_0
  10
140.92169
  20
5.1475677
  0
SEQEND
  0
POLYLINE
  5
1cd
  8
Layer_0
  62
4
  66
1
  10
0
  20
0
  30
0
  0
VERTEX
  5
1cd
  8
Layer_0
  10
142.42169
  20
25.75737
  0
VERTEX
  5
1ce
  8
Layer_0
  10
142.42171
  20
51.519619
  0
SEQEND
  0
POLYLINE
  5
1d0
  8
Layer_0
  62
4
  66
1
  10
0
  20
0
  30
0
  0
VERTEX
  5
1d0
  8
Layer_0
  10
142.42171
  20
56.672588
  0
VERTEX
  5
1d1
  8
Layer_0
  10
142.42171
  20
66.951492
  0
SEQEND
  0
POLYLINE
  5
1d3
  8
Layer_0
  62
4
  66
1
  10
0
  20
0
  30
0
  0
VERTEX
  5
1d3
  8
Layer_0
  10
142.42169
  20
-0.0048828125
  0
VERTEX
  5
1d4
  8
Layer_0
  10
142.42169
  20
20.604919
  0
SEQEND
  0
POLYLINE
  5
1d6
  8
Layer_0
  62
4
  66
1
  10
0
  20
0
  30
0
  0
VERTEX
  5
1d6
  8
Layer_0
  10
278.95529
  20
10.300018
  0
VERTEX
  5
1d7
  8
Layer_0
  10
278.95529
  20
36.062271
  0
SEQEND
  0
POLYLINE
  5
1d9
  8
Layer_0
  62
4
  66
1
  10
0
  20
0
  30
0
  0
VERTEX
  5
1d9
  8
Layer_0
  10
278.95529
  20
41.214722
  0
VERTEX
  5
1da
  8
Layer_0
  10
278.95529
  20
66.976967
  0
SEQEND
  0
POLYLINE
  5
1dc
  8
Layer_0
  62
4
  66
1
  10
0
  20
0
  30
0
  0
VERTEX
  5
1dc
  8
Layer_0
  10
278.95529
  20
-0.0048828125
  0
VERTEX
  5
1dd
  8
Layer_0
  10
278.95529
  20
5.1475677
  0
SEQEND
  0
POLYLINE
  5
1df
  8
Layer_0
  62
4
  66
1
  10
0
  20
0
  30
0
  0
VERTEX
  5
1df
  8
Layer_0
  10
275.95529
  20
10.300018
  0
VERTEX
  5
1e0
  8
Layer_0
  10
275.95529
  20
36.062271
  0
SEQEND
  0
POLYLINE
  5
1e2
  8
Layer_0
  62
4
  66
1
  10
0
  20
0
  30
0
  0
VERTEX
  5
1e2
  8
Layer_0
  10
275.95529
  20
41.214722
  0
VERTEX
  5
1e3
  8
Layer_0
  10
275.95529
  20
66.976967
  0
SEQEND
  0
POLYLINE
  5
1e5
  8
Layer_0
  62
4
  66
1
  10
0
  20
0
  30
0
  0
VERTEX
  5
1e5
  8
Layer_0
  10
275.95529
  20
-0.0048828125
  0
VERTEX
  5
1e6
  8
Layer_0
  10
275.95529
  20
5.1475677
  0
SEQEND
  0
POLYLINE
  5
1e8
  8
Layer_0
  62
4
  66
1
  10
0
  20
0
  30
0
  0
VERTEX
  5
1e8
  8
Layer_0
  10
277.45529
  20
25.75737
  0
VERTEX
  5
1e9
  8
Layer_0
  10
277.45529
  20
51.519615
  0
SEQEND
  0
POLYLINE
  5
1eb
  8
Layer_0
  62
4
  66
1
  10
0
  20
0
  30
0
  0
VERTEX
  5
1eb
  8
Layer_0
  10
277.45529
  20
56.672398
  0
VERTEX
  5
1ec
  8
Layer_0
  10
277.45529
  20
67.011848
  0
SEQEND
  0
POLYLINE
  5
1ee
  8
Layer_0
  62
4
  66
1
  10
0
  20
0
  30
0
  0
VERTEX
  5
1ee
  8
Layer_0
  10
277.45529
  20
-0.0048828125
  0
VERTEX
  5
1ef
  8
Layer_0
  10
277.45529
  20
20.604919
  0
SEQEND
  0
POLYLINE
  5
1f1
  8
Layer_0
  62
4
  66
1
  10
0
  20
0
  30
0
  0
VERTEX
  5
1f1
  8
Layer_0
  10
272.95529
  20
10.300018
  0
VERTEX
  5
1f2
  8
Layer_0
  10
272.95529
  20
36.062271
  0
SEQEND
  0
POLYLINE
  5
1f4
  8
Layer_0
  62
4
  66
1
  10
0
  20
0
  30
0
  0
VERTEX
  5
1f4
  8
Layer_0
  10
272.95529
  20
41.214722
  0
VERTEX
  5
1f5
  8
Layer_0
  10
272.95529
  20
66.976974
  0
SEQEND
  0
POLYLINE
  5
1f7
  8
Layer_0
  62
4
  66
1
  10
0
  20
0
  30
0
  0
VERTEX
  5
1f7
  8
Layer_0
  10
272.95529
  20
-0.0048828125
  0
VERTEX
  5
1f8
  8
Layer_0
  10
272.95529
  20
5.1475677
  0
SEQEND
  0
POLYLINE
  5
1fa
  8
Layer_0
  62
4
  66
1
  10
0
  20
0
  30
0
  0
VERTEX
  5
1fa
  8
Layer_0
  10
274.45529
  20
25.75737
  0
VERTEX
  5
1fb
  8
Layer_0
  10
274.45529
  20
51.519615
  0
SEQEND
  0
POLYLINE
  5
1fd
  8
Layer_0
  62
4
  66
1
  10
0
  20
0
  30
0
  0
VERTEX
  5
1fd
  8
Layer_0
  10
274.45529
  20
56.672398
  0
VERTEX
  5
1fe
  8
Layer_0
  10
274.45529
  20
67.011848
  0
SEQEND
  0
POLYLINE
  5
200
  8
Layer_0
  62
4
  66
1
  10
0
  20
0
  30
0
  0
VERTEX
  5
200
  8
Layer_0
  10
274.45529
  20
-0.0048828125
  0
VERTEX
  5
201
  8
Layer_0
  10
274.45529
  20
20.604919
  0
SEQEND
  0
POLYLINE
  5
203
  8
Layer_0
  62
4
  66
1
  10
0
  20
0
  30
0
  0
VERTEX
  5
203
  8
Layer_0
  10
269.95529
  20
10.300018
  0
VERTEX
  5
204
  8
Layer_0
  10
269.95529
  20
36.062271
  0
SEQEND
  0
POLYLINE
  5
206
  8
Layer_0
  62
4
  66
1
  10
0
  20
0
  30
0
  0
VERTEX
  5
206
  8
Layer_0
  10
269.95529
  20
41.214722
  0
VERTEX
  5
207
  8
Layer_0
  10
269.95529
  20
66.976974
  0
SEQEND
  0
POLYLINE
  5
209
  8
Layer_0
  62
4
  66
1
  10
0
  20
0
  30
0
  0
VERTEX
  5
209
  8
Layer_0
  10
269.95529
  20
-0.0048828125
  0
VERTEX
  5
20a
  8
Layer_0
  10
269.95529
  20
5.1475677
  0
SEQEND
  0
POLYLINE
  5
20c
  8
Layer_0
  62
4
  66
1
  10
0
  20
0
  30
0
  0
VERTEX
  5
20c
  8
Layer_0
  10
271.45529
  20
25.75737
  0
VERTEX
  5
20d
  8
Layer_0
  10
271.45529
  20
51.519619
  0
SEQEND
  0
POLYLINE
  5
20f
  8
Layer_0
  62
4
  66
1
  10
0
  20
0
  30
0
  0
VERTEX
  5
20f
  8
Layer_0
  10
271.45529
  20
56.672398
  0
VERTEX
  5
210
  8
Layer_0
  10
271.45529
  20
67.011848
  0
SEQEND
  0
POLYLINE
  5
212
  8
Layer_0
  62
4
  66
1
  10
0
  20
0
  30
0
  0
VERTEX
  5
212
  8
Layer_0
  10
271.45529
  20
-0.0048828125
  0
VERTEX
  5
213
  8
Layer_0
  10
271.45529
  20
20.604919
  0
SEQEND
  0
POLYLINE
  5
215
  8
Layer_0
  62
4
  66
1
  10
0
  20
0
  30
0
  0
VERTEX
  5
215
  8
Layer_0
  10
266.95529
  20
10.300018
  0
VERTEX
  5
216
  8
Layer_0
  10
266.95529
  20
36.062271
  0
SEQEND
  0
POLYLINE
  5
218
  8
Layer_0
  62
4
  66
1
  10
0
  20
0
  30
0
  0
VERTEX
  5
218
  8
Layer_0
  10
266.95529
  20
41.214722
  0
VERTEX
  5
219
  8
Layer_0
  10
266.95529
  20
66.976974
  0
SEQEND
  0
POLYLINE
  5
21b
  8
Layer_0
  62
4
  66
1
  10
0
  20
0
  30
0
  0
VERTEX
  5
21b
  8
Layer_0
  10
266.95529
  20
-0.0048828125
  0
VERTEX
  5
21c
  8
Layer_0
  10
266.95529
  20
5.1475677
  0
SEQEND
  0
POLYLINE
  5
21e
  8
Layer_0
  62
4
  66
1
  10
0
  20
0
  30
0
  0
VERTEX
  5
21e
  8
Layer_0
  10
268.45529
  20
25.75737
  0
VERTEX
  5
21f
  8
Layer_0
  10
268.45529
  20
51.519619
  0
SEQEND
  0
POLYLINE
  5
221
  8
Layer_0
  62
4
  66
1
  10
0
  20
0
  30
0
  0
VERTEX
  5
221
  8
Layer_0
  10
268.45529
  20
56.672401
  0
VERTEX
  5
222
  8
Layer_0
  10
268.45529
  20
67.011848
  0
SEQEND
  0
POLYLINE
  5
224
  8
Layer_0
  62
4
  66
1
  10
0
  20
0
  30
0
  0
VERTEX
  5
224
  8
Layer_0
  10
268.45529
  20
-0.0048828125
  0
VERTEX
  5
225
  8
Layer_0
  10
268.45529
  20
20.604919
  0
SEQEND
  0
POLYLINE
  5
227
  8
Layer_0
  62
4
  66
1
  10
0
  20
0
  30
0
  0
VERTEX
  5
227
  8
Layer_0
  10
263.95529
  20
10.300018
  0
VERTEX
  5
228
  8
Layer_0
  10
263.95529
  20
36.062271
  0
SEQEND
  0
POLYLINE
  5
22a
  8
Layer_0
  62
4
  66
1
  10
0
  20
0
  30
0
  0
VERTEX
  5
22a
  8
Layer_0
  10
263.95529
  20
41.214722
  0
VERTEX
  5
22b
  8
Layer_0
  10
263.95529
  20
66.976974
  0
SEQEND
  0
POLYLINE
  5
22d
  8
Layer_0
  62
4
  66
1
  10
0
  20
0
  30
0
  0
VERTEX
  5
22d
  8
Layer_0
  10
263.95529
  20
-0.0048828125
  0
VERTEX
  5
22e
  8
Layer_0
  10
263.95529
  20
5.1475677
  0
SEQEND
  0
POLYLINE
  5
230
  8
Layer_0
  62
4
  66
1
  10
0
  20
0
  30
0
  0
VERTEX
  5
230
  8
Layer_0
  10
265.45529
  20
25.75737
  0
VERTEX
  5
231
  8
Layer_0
  10
265.45529
  20
51.519619
  0
SEQEND
  0
POLYLINE
  5
233
  8
Layer_0
  62
4
  66
1
  10
0
  20
0
  30
0
  0
VERTEX
  5
233
  8
Layer_0
  10
265.45529
  20
56.672401
  0
VERTEX
  5
234
  8
Layer_0
  10
265.45529
  20
67.011848
  0
SEQEND
  0
POLYLINE
  5
236
  8
Layer_0
  62
4
  66
1
  10
0
  20
0
  30
0
  0
VERTEX
  5
236
  8
Layer_0
  10
265.45529
  20
-0.0048828125
  0
VERTEX
  5
237
  8
Layer_0
  10
265.45529
  20
20.604919
  0
SEQEND
  0
POLYLINE
  5
239
  8
Layer_0
  62
4
  66
1
  10
0
  20
0
  30
0
  0
VERTEX
  5
239
  8
Layer_0
  10
260.95529
  20
10.300018
  0
VERTEX
  5
23a
  8
Layer_0
  10
260.95529
  20
36.062271
  0
SEQEND
  0
POLYLINE
  5
23c
  8
Layer_0
  62
4
  66
1
  10
0
  20
0
  30
0
  0
VERTEX
  5
23c
  8
Layer_0
  10
260.95529
  20
41.214722
  0
VERTEX
  5
23d
  8
Layer_0
  10
260.95529
  20
66.976974
  0
SEQEND
  0
POLYLINE
  5
23f
  8
Layer_0
  62
4
  66
1
  10
0
  20
0
  30
0
  0
VERTEX
  5
23f
  8
Layer_0
  10
260.95529
  20
-0.0048828125
  0
VERTEX
  5
240
  8
Layer_0
  10
260.95529
  20
5.1475677
  0
SEQEND
  0
POLYLINE
  5
242
  8
Layer_0
  62
4
  66
1
  10
0
  20
0
  30
0
  0
VERTEX
  5
242
  8
Layer_0
  10
262.45529
  20
25.75737
  0
VERTEX
  5
243
  8
Layer_0
  10
262.45529
  20
51.519619
  0
SEQEND
  0
POLYLINE
  5
245
  8
Layer_0
  62
4
  66
1
  10
0
  20
0
  30
0
  0
VERTEX
  5
245
  8
Layer_0
  10
262.45529
  20
56.672401
  0
VERTEX
  5
246
  8
Layer_0
  10
262.45529
  20
67.011848
  0
SEQEND
  0
POLYLINE
  5
248
  8
Layer_0
  62
4
  66
1
  10
0
  20
0
  30
0
  0
VERTEX
  5
248
  8
Layer_0
  10
262.45529
  20
-0.0048828125
  0
VERTEX
  5
249
  8
Layer_0
  10
262.45529
  20
20.604919
  0
SEQEND
  0
POLYLINE
  5
24b
  8
Layer_0
  62
4
  66
1
  10
0
  20
0
  30
0
  0
VERTEX
  5
24b
  8
Layer_0
  10
257.95529
  20
10.300018
  0
VERTEX
  5
24c
  8
Layer_0
  10
257.95529
  20
36.062271
  0
SEQEND
  0
POLYLINE
  5
24e
  8
Layer_0
  62
4
  66
1
  10
0
  20
0
  30
0
  0
VERTEX
  5
24e
  8
Layer_0
  10
257.95529
  20
41.214722
  0
VERTEX
  5
24f
  8
Layer_0
  10
257.95529
  20
66.976974
  0
SEQEND
  0
POLYLINE
  5
251
  8
Layer_0
  62
4
  66
1
  10
0
  20
0
  30
0
  0
VERTEX
  5
251
  8
Layer_0
  10
257.95529
  20
-0.0048828125
  0
VERTEX
  5
252
  8
Layer_0
  10
257.95529
  20
5.1475677
  0
SEQEND
  0
POLYLINE
  5
254
  8
Layer_0
  62
4
  66
1
  10
0
  20
0
  30
0
  0
VERTEX
  5
254
  8
Layer_0
  10
259.45529
  20
25.75737
  0
VERTEX
  5
255
  8
Layer_0
  10
259.45529
  20
51.519619
  0
SEQEND
  0
POLYLINE
  5
257
  8
Layer_0
  62
4
  66
1
  10
0
  20
0
  30
0
  0
VERTEX
  5
257
  8
Layer_0
  10
259.45529
  20
56.672401
  0
VERTEX
  5
258
  8
Layer_0
  10
259.45529
  20
67.011848
  0
SEQEND
  0
POLYLINE
  5
25a
  8
Layer_0
  62
4
  66
1
  10
0
  20
0
  30
0
  0
VERTEX
  5
25a
  8
Layer_0
  10
259.45529
  20
-0.0048828125
  0
VERTEX
  5
25b
  8
Layer_0
  10
259.45529
  20
20.604919
  0
SEQEND
  0
POLYLINE
  5
25d
  8
Layer_0
  62
4
  66
1
  10
0
  20
0
  30
0
  0
VERTEX
  5
25d
  8
Layer_0
  10
254.95529
  20
10.300018
  0
VERTEX
  5
25e
  8
Layer_0
  10
254.95529
  20
36.062271
  0
SEQEND
  0
POLYLINE
  5
260
  8
Layer_0
  62
4
  66
1
  10
0
  20
0
  30
0
  0
VERTEX
  5
260
  8
Layer_0
  10
254.95529
  20
41.214722
  0
VERTEX
  5
261
  8
Layer_0
  10
254.95529
  20
66.976974
  0
SEQEND
  0
POLYLINE
  5
263
  8
Layer_0
  62
4
  66
1
  10
0
  20
0
  30
0
  0
VERTEX
  5
263
  8
Layer_0
  10
254.95529
  20
-0.0048828125
  0
VERTEX
  5
264
  8
Layer_0
  10
254.95529
  20
5.1475677
  0
SEQEND
  0
POLYLINE
  5
266
  8
Layer_0
  62
4
  66
1
  10
0
  20
0
  30
0
  0
VERTEX
  5
266
  8
Layer_0
  10
256.45529
  20
25.75737
  0
VERTEX
  5
267
  8
Layer_0
  10
256.45529
  20
51.519619
  0
SEQEND
  0
POLYLINE
  5
269
  8
Layer_0
  62
4
  66
1
  10
0
  20
0
  30
0
  0
VERTEX
  5
269
  8
Layer_0
  10
256.45529
  20
56.67268
  0
VERTEX
  5
26a
  8
Layer_0
  10
256.45529
  20
66.951584
  0
SEQEND
  0
POLYLINE
  5
26c
  8
Layer_0
  62
4
  66
1
  10
0
  20
0
  30
0
  0
VERTEX
  5
26c
  8
Layer_0
  10
256.45529
  20
-0.0046081543
  0
VERTEX
  5
26d
  8
Layer_0
  10
256.45529
  20
13.146912
  0
SEQEND
  0
POLYLINE
  5
26f
  8
Layer_0
  62
4
  66
1
  10
0
  20
0
  30
0
  0
VERTEX
  5
26f
  8
Layer_0
  10
337.98828
  20
10.300018
  0
VERTEX
  5
270
  8
Layer_0
  10
337.98831
  20
36.062271
  0
SEQEND
  0
POLYLINE
  5
272
  8
Layer_0
  62
4
  66
1
  10
0
  20
0
  30
0
  0
VERTEX
  5
272
  8
Layer_0
  10
337.98831
  20
41.214722
  0
VERTEX
  5
273
  8
Layer_0
  10
337.98831
  20
66.976967
  0
SEQEND
  0
POLYLINE
  5
275
  8
Layer_0
  62
4
  66
1
  10
0
  20
0
  30
0
  0
VERTEX
  5
275
  8
Layer_0
  10
337.98828
  20
-0.0048828125
  0
VERTEX
  5
276
  8
Layer_0
  10
337.98828
  20
5.1475677
  0
SEQEND
  0
POLYLINE
  5
278
  8
Layer_0
  62
4
  66
1
  10
0
  20
0
  30
0
  0
VERTEX
  5
278
  8
Layer_0
  10
334.98828
  20
10.300018
  0
VERTEX
  5
279
  8
Layer_0
  10
334.98831
  20
36.062271
  0
SEQEND
  0
POLYLINE
  5
27b
  8
Layer_0
  62
4
  66
1
  10
0
  20
0
  30
0
  0
VERTEX
  5
27b
  8
Layer_0
  10
334.98831
  20
41.214722
  0
VERTEX
  5
27c
  8
Layer_0
  10
334.98831
  20
66.976967
  0
SEQEND
  0
POLYLINE
  5
27e
  8
Layer_0
  62
4
  66
1
  10
0
  20
0
  30
0
  0
VERTEX
  5
27e
  8
Layer_0
  10
334.98828
  20
-0.0048828125
  0
VERTEX
  5
27f
  8
Layer_0
  10
334.98828
  20
5.1475677
  0
SEQEND
  0
POLYLINE
  5
281
  8
Layer_0
  62
4
  66
1
  10
0
  20
0
  30
0
  0
VERTEX
  5
281
  8
Layer_0
  10
336.48828
  20
25.75737
  0
VERTEX
  5
282
  8
Layer_0
  10
336.48831
  20
51.519615
  0
SEQEND
  0
POLYLINE
  5
284
  8
Layer_0
  62
4
  66
1
  10
0
  20
0
  30
0
  0
VERTEX
  5
284
  8
Layer_0
  10
336.48831
  20
56.672398
  0
VERTEX
  5
285
  8
Layer_0
  10
336.48831
  20
67.011848
  0
SEQEND
  0
POLYLINE
  5
287
  8
Layer_0
  62
4
  66
1
  10
0
  20
0
  30
0
  0
VERTEX
  5
287
  8
Layer_0
  10
336.48828
  20
-0.0048828125
  0
VERTEX
  5
288
  8
Layer_0
  10
336.48828
  20
20.604919
  0
SEQEND
  0
POLYLINE
  5
28a
  8
Layer_0
  62
4
  66
1
  10
0
  20
0
  30
0
  0
VERTEX
  5
28a
  8
Layer_0
  10
331.98828
  20
10.300018
  0
VERTEX
  5
28b
  8
Layer_0
  10
331.98831
  20
36.062271
  0
SEQEND
  0
POLYLINE
  5
28d
  8
Layer_0
  62
4
  66
1
  10
0
  20
0
  30
0
  0
VERTEX
  5
28d
  8
Layer_0
  10
331.98831
  20
41.214722
  0
VERTEX
  5
28e
  8
Layer_0
  10
331.98831
  20
66.976974
  0
SEQEND
  0
POLYLINE
  5
290
  8
Layer_0
  62
4
  66
1
  10
0
  20
0
  30
0
  0
VERTEX
  5
290
  8
Layer_0
  10
331.98828
  20
-0.0048828125
  0
VERTEX
  5
291
  8
Layer_0
  10
331.98828
  20
5.1475677
  0
SEQEND
  0
POLYLINE
  5
293
  8
Layer_0
  62
4
  66
1
  10
0
  20
0
  30
0
  0
VERTEX
  5
293
  8
Layer_0
  10
333.48828
  20
25.75737
  0
VERTEX
  5
294
  8
Layer_0
  10
333.48831
  20
51.519615
  0
SEQEND
  0
POLYLINE
  5
296
  8
Layer_0
  62
4
  66
1
  10
0
  20
0
  30
0
  0
VERTEX
  5
296
  8
Layer_0
  10
333.48831
  20
56.672398
  0
VERTEX
  5
297
  8
Layer_0
  10
333.48831
  20
67.011848
  0
SEQEND
  0
POLYLINE
  5
299
  8
Layer_0
  62
4
  66
1
  10
0
  20
0
  30
0
  0
VERTEX
  5
299
  8
Layer_0
  10
333.48828
  20
-0.0048828125
  0
VERTEX
  5
29a
  8
Layer_0
  10
333.48828
  20
20.604919
  0
SEQEND
  0
POLYLINE
  5
29c
  8
Layer_0
  62
4
  66
1
  10
0
  20
0
  30
0
  0
VERTEX
  5
29c
  8
Layer_0
  10
328.98828
  20
10.300018
  0
VERTEX
  5
29d
  8
Layer_0
  10
328.98831
  20
36.062271
  0
SEQEND
  0
POLYLINE
  5
29f
  8
Layer_0
  62
4
  66
1
  10
0
  20
0
  30
0
  0
VERTEX
  5
29f
  8
Layer_0
  10
328.98831
  20
41.214722
  0
VERTEX
  5
2a0
  8
Layer_0
  10
328.98831
  20
66.976974
  0
SEQEND
  0
POLYLINE
  5
2a2
  8
Layer_0
  62
4
  66
1
  10
0
  20
0
  30
0
  0
VERTEX
  5
2a2
  8
Layer_0
  10
328.98828
  20
-0.0048828125
  0
VERTEX
  5
2a3
  8
Layer_0
  10
328.98828
  20
5.1475677
  0
SEQEND
  0
POLYLINE
  5
2a5
  8
Layer_0
  62
4
  66
1
  10
0
  20
0
  30
0
  0
VERTEX
  5
2a5
  8
Layer_0
  10
330.48828
  20
25.75737
  0
VERTEX
  5
2a6
  8
Layer_0
  10
330.48831
  20
51.519619
  0
SEQEND
  0
POLYLINE
  5
2a8
  8
Layer_0
  62
4
  66
1
  10
0
  20
0
  30
0
  0
VERTEX
  5
2a8
  8
Layer_0
  10
330.48831
  20
56.672398
  0
VERTEX
  5
2a9
  8
Layer_0
  10
330.48831
  20
67.011848
  0
SEQEND
  0
POLYLINE
  5
2ab
  8
Layer_0
  62
4
  66
1
  10
0
  20
0
  30
0
  0
VERTEX
  5
2ab
  8
Layer_0
  10
330.48828
  20
-0.0048828125
  0
VERTEX
  5
2ac
  8
Layer_0
  10
330.48828
  20
20.604919
  0
SEQEND
  0
POLYLINE
  5
2ae
  8
Layer_0
  62
4
  66
1
  10
0
  20
0
  30
0
  0
VERTEX
  5
2ae
  8
Layer_0
  10
325.98828
  20
10.300018
  0
VERTEX
  5
2af
  8
Layer_0
  10
325.98831
  20
36.062271
  0
SEQEND
  0
POLYLINE
  5
2b1
  8
Layer_0
  62
4
  66
1
  10
0
  20
0
  30
0
  0
VERTEX
  5
2b1
  8
Layer_0
  10
325.98831
  20
41.214722
  0
VERTEX
  5
2b2
  8
Layer_0
  10
325.98831
  20
66.976974
  0
SEQEND
  0
POLYLINE
  5
2b4
  8
Layer_0
  62
4
  66
1
  10
0
  20
0
  30
0
  0
VERTEX
  5
2b4
  8
Layer_0
  10
325.98828
  20
-0.0048828125
  0
VERTEX
  5
2b5
  8
Layer_0
  10
325.98828
  20
5.1475677
  0
SEQEND
  0
POLYLINE
  5
2b7
  8
Layer_0
  62
4
  66
1
  10
0
  20
0
  30
0
  0
VERTEX
  5
2b7
  8
Layer_0
  10
327.48828
  20
25.75737
  0
VERTEX
  5
2b8
  8
Layer_0
  10
327.48831
  20
51.519619
  0
SEQEND
  0
POLYLINE
  5
2ba
  8
Layer_0
  62
4
  66
1
  10
0
  20
0
  30
0
  0
VERTEX
  5
2ba
  8
Layer_0
  10
327.48831
  20
56.672401
  0
VERTEX
  5
2bb
  8
Layer_0
  10
327.48831
  20
67.011848
  0
SEQEND
  0
POLYLINE
  5
2bd
  8
Layer_0
  62
4
  66
1
  10
0
  20
0
  30
0
  0
VERTEX
  5
2bd
  8
Layer_0
  10
327.48828
  20
-0.0048828125
  0
VERTEX
  5
2be
  8
Layer_0
  10
327.48828
  20
20.604919
  0
SEQEND
  0
POLYLINE
  5
2c0
  8
Layer_0
  62
4
  66
1
  10
0
  20
0
  30
0
  0
VERTEX
  5
2c0
  8
Layer_0
  10
322.98828
  20
10.300018
  0
VERTEX
  5
2c1
  8
Layer_0
  10
322.98831
  20
36.062271
  0
SEQEND
  0
POLYLINE
  5
2c3
  8
Layer_0
  62
4
  66
1
  10
0
  20
0
  30
0
  0
VERTEX
  5
2c3
  8
Layer_0
  10
322.98831
  20
41.214722
  0
VERTEX
  5
2c4
  8
Layer_0
  10
322.98831
  20
66.976974
  0
SEQEND
  0
POLYLINE
  5
2c6
  8
Layer_0
  62
4
  66
1
  10
0
  20
0
  30
0
  0
VERTEX
  5
2c6
  8
Layer_0
  10
322.98828
  20
-0.0048828125
  0
VERTEX
  5
2c7
  8
Layer_0
  10
322.98828
  20
5.1475677
  0
SEQEND
  0
POLYLINE
  5
2c9
  8
Layer_0
  62
4
  66
1
  10
0
  20
0
  30
0
  0
VERTEX
  5
2c9
  8
Layer_0
  10
324.48828
  20
25.75737
  0
VERTEX
  5
2ca
  8
Layer_0
  10
324.48831
  20
51.519619
  0
SEQEND
  0
POLYLINE
  5
2cc
  8
Layer_0
  62
4
  66
1
  10
0
  20
0
  30
0
  0
VERTEX
  5
2cc
  8
Layer_0
  10
324.48831
  20
56.672401
  0
VERTEX
  5
2cd
  8
Layer_0
  10
324.48831
  20
67.011848
  0
SEQEND
  0
POLYLINE
  5
2cf
  8
Layer_0
  62
4
  66
1
  10
0
  20
0
  30
0
  0
VERTEX
  5
2cf
  8
Layer_0
  10
324.48828
  20
-0.0048828125
  0
VERTEX
  5
2d0
  8
Layer_0
  10
324.48828
  20
20.604919
  0
SEQEND
  0
POLYLINE
  5
2d2
  8
Layer_0
  62
4
  66
1
  10
0
  20
0
  30
0
  0
VERTEX
  5
2d2
  8
Layer_0
  10
319.98828
  20
10.300018
  0
VERTEX
  5
2d3
  8
Layer_0
  10
319.98831
  20
36.062271
  0
SEQEND
  0
POLYLINE
  5
2d5
  8
Layer_0
  62
4
  66
1
  10
0
  20
0
  30
0
  0
VERTEX
  5
2d5
  8
Layer_0
  10
319.98831
  20
41.214722
  0
VERTEX
  5
2d6
  8
Layer_0
  10
319.98831
  20
66.976974
  0
SEQEND
  0
POLYLINE
  5
2d8
  8
Layer_0
  62
4
  66
1
  10
0
  20
0
  30
0
  0
VERTEX
  5
2d8
  8
Layer_0
  10
319.98828
  20
-0.0048828125
  0
VERTEX
  5
2d9
  8
Layer_0
  10
319.98828
  20
5.1475677
  0
SEQEND
  0
POLYLINE
  5
2db
  8
Layer_0
  62
4
  66
1
  10
0
  20
0
  30
0
  0
VERTEX
  5
2db
  8
Layer_0
  10
321.48828
  20
25.75737
  0
VERTEX
  5
2dc
  8
Layer_0
  10
321.48831
  20
51.519619
  0
SEQEND
  0
POLYLINE
  5
2de
  8
Layer_0
  62
4
  66
1
  10
0
  20
0
  30
0
  0
VERTEX
  5
2de
  8
Layer_0
  10
321.48831
  20
56.672401
  0
VERTEX
  5
2df
  8
Layer_0
  10
321.48831
  20
67.011848
  0
SEQEND
  0
POLYLINE
  5
2e1
  8
Layer_0
  62
4
  66
1
  10
0
  20
0
  30
0
  0
VERTEX
  5
2e1
  8
Layer_0
  10
321.48828
  20
-0.0048828125
  0
VERTEX
  5
2e2
  8
Layer_0
  10
321.48828
  20
20.604919
  0
SEQEND
  0
POLYLINE
  5
2e4
  8
Layer_0
  62
4
  66
1
  10
0
  20
0
  30
0
  0
VERTEX
  5
2e4
  8
Layer_0
  10
316.98828
  20
10.300018
  0
VERTEX
  5
2e5
  8
Layer_0
  10
316.98831
  20
36.062271
  0
SEQEND
  0
POLYLINE
  5
2e7
  8
Layer_0
  62
4
  66
1
  10
0
  20
0
  30
0
  0
VERTEX
  5
2e7
  8
Layer_0
  10
316.98831
  20
41.214722
  0
VERTEX
  5
2e8
  8
Layer_0
  10
316.98831
  20
66.976974
  0
SEQEND
  0
POLYLINE
  5
2ea
  8
Layer_0
  62
4
  66
1
  10
0
  20
0
  30
0
  0
VERTEX
  5
2ea
  8
Layer_0
  10
316.98828
  20
-0.0048828125
  0
VERTEX
  5
2eb
  8
Layer_0
  10
316.98828
  20
5.1475677
  0
SEQEND
  0
POLYLINE
  5
2ed
  8
Layer_0
  62
4
  66
1
  10
0
  20
0
  30
0
  0
VERTEX
  5
2ed
  8
Layer_0
  10
318.48828
  20
25.75737
  0
VERTEX
  5
2ee
  8
Layer_0
  10
318.48831
  20
51.519619
  0
SEQEND
  0
POLYLINE
  5
2f0
  8
Layer_0
  62
4
  66
1
  10
0
  20
0
  30
0
  0
VERTEX
  5
2f0
  8
Layer_0
  10
318.48831
  20
56.672401
  0
VERTEX
  5
2f1
  8
Layer_0
  10
318.48831
  20
67.011848
  0
SEQEND
  0
POLYLINE
  5
2f3
  8
Layer_0
  62
4
  66
1
  10
0
  20
0
  30
0
  0
VERTEX
  5
2f3
  8
Layer_0
  10
318.48828
  20
-0.0048828125
  0
VERTEX
  5
2f4
  8
Layer_0
  10
318.48828
  20
20.604919
  0
SEQEND
  0
POLYLINE
  5
2f6
  8
Layer_0
  62
4
  66
1
  10
0
  20
0
  30
0
  0
VERTEX
  5
2f6
  8
Layer_0
  10
313.98828
  20
10.300018
  0
VERTEX
  5
2f7
  8
Layer_0
  10
313.98831
  20
36.062271
  0
SEQEND
  0
POLYLINE
  5
2f9
  8
Layer_0
  62
4
  66
1
  10
0
  20
0
  30
0
  0
VERTEX
  5
2f9
  8
Layer_0
  10
313.98831
  20
41.214722
  0
VERTEX
  5
2fa
  8
Layer_0
  10
313.98831
  20
66.976974
  0
SEQEND
  0
POLYLINE
  5
2fc
  8
Layer_0
  62
4
  66
1
  10
0
  20
0
  30
0
  0
VERTEX
  5
2fc
  8
Layer_0
  10
313.98828
  20
-0.0048828125
  0
VERTEX
  5
2fd
  8
Layer_0
  10
313.98828
  20
5.1475677
  0
SEQEND
  0
POLYLINE
  5
2ff
  8
Layer_0
  62
4
  66
1
  10
0
  20
0
  30
0
  0
VERTEX
  5
2ff
  8
Layer_0
  10
315.48828
  20
25.75737
  0
VERTEX
  5
300
  8
Layer_0
  10
315.48831
  20
51.519619
  0
SEQEND
  0
POLYLINE
  5
302
  8
Layer_0
  62
4
  66
1
  10
0
  20
0
  30
0
  0
VERTEX
  5
302
  8
Layer_0
  10
315.48831
  20
56.67268
  0
VERTEX
  5
303
  8
Layer_0
  10
315.48831
  20
66.951584
  0
SEQEND
  0
POLYLINE
  5
305
  8
Layer_0
  62
4
  66
1
  10
0
  20
0
  30
0
  0
VERTEX
  5
305
  8
Layer_0
  10
315.48828
  20
-0.0048828125
  0
VERTEX
  5
306
  8
Layer_0
  10
315.48828
  20
20.604919
  0
SEQEND
  0
POLYLINE
  5
308
  8
Layer_0
  62
4
  66
1
  10
0
  20
0
  30
0
  0
VERTEX
  5
308
  8
Layer_0
  10
105.88055
  20
67.072487
  0
VERTEX
  5
309
  8
Layer_0
  10
105.88055
  20
72.224937
  0
SEQEND
  0
POLYLINE
  5
30b
  8
Layer_0
  62
4
  66
1
  10
0
  20
0
  30
0
  0
VERTEX
  5
30b
  8
Layer_0
  10
102.88055
  20
67.072487
  0
VERTEX
  5
30c
  8
Layer_0
  10
102.88055
  20
72.224937
  0
SEQEND
  0
POLYLINE
  5
30e
  8
Layer_0
  62
4
  66
1
  10
0
  20
0
  30
0
  0
VERTEX
  5
30e
  8
Layer_0
  10
99.880554
  20
67.072487
  0
VERTEX
  5
30f
  8
Layer_0
  10
99.880554
  20
72.224937
  0
SEQEND
  0
POLYLINE
  5
311
  8
Layer_0
  62
4
  66
1
  10
0
  20
0
  30
0
  0
VERTEX
  5
311
  8
Layer_0
  10
96.880554
  20
67.072487
  0
VERTEX
  5
312
  8
Layer_0
  10
96.880554
  20
72.224937
  0
SEQEND
  0
POLYLINE
  5
314
  8
Layer_0
  62
4
  66
1
  10
0
  20
0
  30
0
  0
VERTEX
  5
314
  8
Layer_0
  10
93.880554
  20
67.072487
  0
VERTEX
  5
315
  8
Layer_0
  10
93.880554
  20
72.224937
  0
SEQEND
  0
POLYLINE
  5
317
  8
Layer_0
  62
4
  66
1
  10
0
  20
0
  30
0
  0
VERTEX
  5
317
  8
Layer_0
  10
90.880554
  20
67.072487
  0
VERTEX
  5
318
  8
Layer_0
  10
90.880554
  20
72.224937
  0
SEQEND
  0
POLYLINE
  5
31a
  8
Layer_0
  62
4
  66
1
  10
0
  20
0
  30
0
  0
VERTEX
  5
31a
  8
Layer_0
  10
87.880554
  20
67.072487
  0
VERTEX
  5
31b
  8
Layer_0
  10
87.880554
  20
72.224937
  0
SEQEND
  0
POLYLINE
  5
31d
  8
Layer_0
  62
4
  66
1
  10
0
  20
0
  30
0
  0
VERTEX
  5
31d
  8
Layer_0
  10
84.880554
  20
67.072487
  0
VERTEX
  5
31e
  8
Layer_0
  10
84.880554
  20
72.224937
  0
SEQEND
  0
POLYLINE
  5
320
  8
Layer_0
  62
4
  66
1
  10
0
  20
0
  30
0
  0
VERTEX
  5
320
  8
Layer_0
  10
81.880554
  20
67.072487
  0
VERTEX
  5
321
  8
Layer_0
  10
81.880554
  20
72.224937
  0
SEQEND
  0
POLYLINE
  5
323
  8
Layer_0
  62
4
  66
1
  10
0
  20
0
  30
0
  0
VERTEX
  5
323
  8
Layer_0
  10
164.91376
  20
67.072487
  0
VERTEX
  5
324
  8
Layer_0
  10
164.91376
  20
72.224937
  0
SEQEND
  0
POLYLINE
  5
326
  8
Layer_0
  62
4
  66
1
  10
0
  20
0
  30
0
  0
VERTEX
  5
326
  8
Layer_0
  10
161.91376
  20
67.072487
  0
VERTEX
  5
327
  8
Layer_0
  10
161.91376
  20
72.224937
  0
SEQEND
  0
POLYLINE
  5
329
  8
Layer_0
  62
4
  66
1
  10
0
  20
0
  30
0
  0
VERTEX
  5
329
  8
Layer_0
  10
158.91376
  20
67.072487
  0
VERTEX
  5
32a
  8
Layer_0
  10
158.91376
  20
72.224937
  0
SEQEND
  0
POLYLINE
  5
32c
  8
Layer_0
  62
4
  66
1
  10
0
  20
0
  30
0
  0
VERTEX
  5
32c
  8
Layer_0
  10
155.91376
  20
67.072487
  0
VERTEX
  5
32d
  8
Layer_0
  10
155.91376
  20
72.224937
  0
SEQEND
  0
POLYLINE
  5
32f
  8
Layer_0
  62
4
  66
1
  10
0
  20
0
  30
0
  0
VERTEX
  5
32f
  8
Layer_0
  10
152.91376
  20
67.072487
  0
VERTEX
  5
330
  8
Layer_0
  10
152.91376
  20
72.224937
  0
SEQEND
  0
POLYLINE
  5
332
  8
Layer_0
  62
4
  66
1
  10
0
  20
0
  30
0
  0
VERTEX
  5
332
  8
Layer_0
  10
149.91376
  20
67.072487
  0
VERTEX
  5
333
  8
Layer_0
  10
149.91376
  20
72.224937
  0
SEQEND
  0
POLYLINE
  5
335
  8
Layer_0
  62
4
  66
1
  10
0
  20
0
  30
0
  0
VERTEX
  5
335
  8
Layer_0
  10
146.91376
  20
67.072487
  0
VERTEX
  5
336
  8
Layer_0
  10
146.91376
  20
72.224937
  0
SEQEND
  0
POLYLINE
  5
338
  8
Layer_0
  62
4
  66
1
  10
0
  20
0
  30
0
  0
VERTEX
  5
338
  8
Layer_0
  10
143.91376
  20
67.072487
  0
VERTEX
  5
339
  8
Layer_0
  10
143.91376
  20
72.224937
  0
SEQEND
  0
POLYLINE
  5
33b
  8
Layer_0
  62
4
  66
1
  10
0
  20
0
  30
0
  0
VERTEX
  5
33b
  8
Layer_0
  10
140.91376
  20
67.072487
  0
VERTEX
  5
33c
  8
Layer_0
  10
140.91376
  20
72.224937
  0
SEQEND
  0
POLYLINE
  5
33e
  8
Layer_0
  62
4
  66
1
  10
0
  20
0
  30
0
  0
VERTEX
  5
33e
  8
Layer_0
  10
278.94736
  20
67.072487
  0
VERTEX
  5
33f
  8
Layer_0
  10
278.94736
  20
72.224937
  0
SEQEND
  0
POLYLINE
  5
341
  8
Layer_0
  62
4
  66
1
  10
0
  20
0
  30
0
  0
VERTEX
  5
341
  8
Layer_0
  10
275.94736
  20
67.072487
  0
VERTEX
  5
342
  8
Layer_0
  10
275.94736
  20
72.224937
  0
SEQEND
  0
POLYLINE
  5
344
  8
Layer_0
  62
4
  66
1
  10
0
  20
0
  30
0
  0
VERTEX
  5
344
  8
Layer_0
  10
272.94736
  20
67.072487
  0
VERTEX
  5
345
  8
Layer_0
  10
272.94736
  20
72.224937
  0
SEQEND
  0
POLYLINE
  5
347
  8
Layer_0
  62
4
  66
1
  10
0
  20
0
  30
0
  0
VERTEX
  5
347
  8
Layer_0
  10
269.94736
  20
67.072487
  0
VERTEX
  5
348
  8
Layer_0
  10
269.94736
  20
72.224937
  0
SEQEND
  0
POLYLINE
  5
34a
  8
Layer_0
  62
4
  66
1
  10
0
  20
0
  30
0
  0
VERTEX
  5
34a
  8
Layer_0
  10
266.94736
  20
67.072487
  0
VERTEX
  5
34b
  8
Layer_0
  10
266.94736
  20
72.224937
  0
SEQEND
  0
POLYLINE
  5
34d
  8
Layer_0
  62
4
  66
1
  10
0
  20
0
  30
0
  0
VERTEX
  5
34d
  8
Layer_0
  10
263.94736
  20
67.072487
  0
VERTEX
  5
34e
  8
Layer_0
  10
263.94736
  20
72.224937
  0
SEQEND
  0
POLYLINE
  5
350
  8
Layer_0
  62
4
  66
1
  10
0
  20
0
  30
0
  0
VERTEX
  5
350
  8
Layer_0
  10
260.94736
  20
67.072487
  0
VERTEX
  5
351
  8
Layer_0
  10
260.94736
  20
72.224937
  0
SEQEND
  0
POLYLINE
  5
353
  8
Layer_0
  62
4
  66
1
  10
0
  20
0
  30
0
  0
VERTEX
  5
353
  8
Layer_0
  10
257.94736
  20
67.072487
  0
VERTEX
  5
354
  8
Layer_0
  10
257.94736
  20
72.224937
  0
SEQEND
  0
POLYLINE
  5
356
  8
Layer_0
  62
4
  66
1
  10
0
  20
0
  30
0
  0
VERTEX
  5
356
  8
Layer_0
  10
254.94736
  20
67.072487
  0
VERTEX
  5
357
  8
Layer_0
  10
254.94736
  20
72.224937
  0
SEQEND
  0
POLYLINE
  5
359
  8
Layer_0
  62
4
  66
1
  10
0
  20
0
  30
0
  0
VERTEX
  5
359
  8
Layer_0
  10
337.98035
  20
67.072487
  0
VERTEX
  5
35a
  8
Layer_0
  10
337.98035
  20
72.224937
  0
SEQEND
  0
POLYLINE
  5
35c
  8
Layer_0
  62
4
  66
1
  10
0
  20
0
  30
0
  0
VERTEX
  5
35c
  8
Layer_0
  10
334.98035
  20
67.072487
  0
VERTEX
  5
35d
  8
Layer_0
  10
334.98035
  20
72.224937
  0
SEQEND
  0
POLYLINE
  5
35f
  8
Layer_0
  62
4
  66
1
  10
0
  20
0
  30
0
  0
VERTEX
  5
35f
  8
Layer_0
  10
331.98035
  20
67.072487
  0
VERTEX
  5
360
  8
Layer_0
  10
331.98035
  20
72.224937
  0
SEQEND
  0
POLYLINE
  5
362
  8
Layer_0
  62
4
  66
1
  10
0
  20
0
  30
0
  0
VERTEX
  5
362
  8
Layer_0
  10
328.98035
  20
67.072487
  0
VERTEX
  5
363
  8
Layer_0
  10
328.98035
  20
72.224937
  0
SEQEND
  0
POLYLINE
  5
365
  8
Layer_0
  62
4
  66
1
  10
0
  20
0
  30
0
  0
VERTEX
  5
365
  8
Layer_0
  10
325.98035
  20
67.072487
  0
VERTEX
  5
366
  8
Layer_0
  10
325.98035
  20
72.224937
  0
SEQEND
  0
POLYLINE
  5
368
  8
Layer_0
  62
4
  66
1
  10
0
  20
0
  30
0
  0
VERTEX
  5
368
  8
Layer_0
  10
322.98035
  20
67.072487
  0
VERTEX
  5
369
  8
Layer_0
  10
322.98035
  20
72.224937
  0
SEQEND
  0
POLYLINE
  5
36b
  8
Layer_0
  62
4
  66
1
  10
0
  20
0
  30
0
  0
VERTEX
  5
36b
  8
Layer_0
  10
319.98035
  20
67.072487
  0
VERTEX
  5
36c
  8
Layer_0
  10
319.98035
  20
72.224937
  0
SEQEND
  0
POLYLINE
  5
36e
  8
Layer_0
  62
4
  66
1
  10
0
  20
0
  30
0
  0
VERTEX
  5
36e
  8
Layer_0
  10
316.98035
  20
67.072487
  0
VERTEX
  5
36f
  8
Layer_0
  10
316.98035
  20
72.224937
  0
SEQEND
  0
POLYLINE
  5
371
  8
Layer_0
  62
4
  66
1
  10
0
  20
0
  30
0
  0
VERTEX
  5
371
  8
Layer_0
  10
313.98035
  20
67.072487
  0
VERTEX
  5
372
  8
Layer_0
  10
313.98035
  20
72.224937
  0
SEQEND
  0
ENDSEC
  0
EOF
