  0
SECTION
  2
HEADER
  9
$ACADVER
  1
AC1009
  0
ENDSEC
  0
SECTION
  2
ENTITIES
  0
POLYLINE
  5
90
  8
Layer_0
  62
0
  66
1
  10
0
  20
0
  30
0
  0
VERTEX
  5
90
  8
Layer_0
  10
65.795433
  20
60.520245
  0
VERTEX
  5
91
  8
Layer_0
  10
52.941814
  20
49.803963
  42
-0.35139165
  0
VERTEX
  5
92
  8
Layer_0
  10
49.189243
  20
49.732143
  42
0.095347376
  0
VERTEX
  5
93
  8
Layer_0
  10
46.320026
  20
51.177254
  42
-0.35139145
  0
VERTEX
  5
94
  8
Layer_0
  10
44.143784
  20
54.235184
  0
VERTEX
  5
95
  8
Layer_0
  10
45.102345
  20
70.942528
  42
-0.20588638
  0
VERTEX
  5
96
  8
Layer_0
  10
45.808655
  20
72.355988
  42
-0.20588712
  0
VERTEX
  5
97
  8
Layer_0
  10
47.320423
  20
72.815681
  42
-0.17973023
  0
VERTEX
  5
98
  8
Layer_0
  10
65.980057
  20
63.417568
  42
-0.20588725
  0
VERTEX
  5
99
  8
Layer_0
  10
66.510666
  20
61.929214
  42
-0.20588831
  0
VERTEX
  5
9a
  8
Layer_0
  10
65.795433
  20
60.520245
  0
SEQEND
  0
POLYLINE
  5
9c
  8
Layer_0
  62
0
  66
1
  10
0
  20
0
  30
0
  0
VERTEX
  5
9c
  8
Layer_0
  10
34.072418
  20
69.142746
  0
VERTEX
  5
9d
  8
Layer_0
  10
40.292217
  20
53.606712
  42
-0.35139123
  0
VERTEX
  5
9e
  8
Layer_0
  10
39.200916
  20
50.01561
  42
0.095347509
  0
VERTEX
  5
9f
  8
Layer_0
  10
36.939896
  20
47.733383
  42
-0.35139115
  0
VERTEX
  5
a0
  8
Layer_0
  10
33.359138
  20
46.608604
  0
VERTEX
  5
a1
  8
Layer_0
  10
17.76572
  20
52.683105
  42
-0.20588555
  0
VERTEX
  5
a2
  8
Layer_0
  10
16.639698
  20
53.791634
  42
-0.20588778
  0
VERTEX
  5
a3
  8
Layer_0
  10
16.66967
  20
55.37146
  42
-0.1797305
  0
VERTEX
  5
a4
  8
Layer_0
  10
31.373949
  20
70.213654
  42
-0.20588582
  0
VERTEX
  5
a5
  8
Layer_0
  10
32.95343
  20
70.258369
  42
-0.20588629
  0
VERTEX
  5
a6
  8
Layer_0
  10
34.072418
  20
69.142746
  0
SEQEND
  0
POLYLINE
  5
a8
  8
Layer_0
  62
0
  66
1
  10
0
  20
0
  30
0
  0
VERTEX
  5
a8
  8
Layer_0
  10
67.397903
  20
27.685364
  0
VERTEX
  5
a9
  8
Layer_0
  10
53.234127
  20
36.59837
  42
-0.35139133
  0
VERTEX
  5
aa
  8
Layer_0
  10
52.006214
  20
40.145084
  42
0.095347316
  0
VERTEX
  5
ab
  8
Layer_0
  10
52.493958
  20
43.320435
  42
-0.35139176
  0
VERTEX
  5
ac
  8
Layer_0
  10
54.729725
  20
46.335117
  0
VERTEX
  5
ad
  8
Layer_0
  10
70.915565
  20
50.586323
  42
-0.20588655
  0
VERTEX
  5
ae
  8
Layer_0
  10
72.478111
  20
50.351364
  42
-0.20588495
  0
VERTEX
  5
af
  8
Layer_0
  10
73.382462
  20
49.055641
  42
-0.17973031
  0
VERTEX
  5
b0
  8
Layer_0
  10
70.210472
  20
28.4051
  42
-0.20588684
  0
VERTEX
  5
b1
  8
Layer_0
  10
68.958931
  20
27.440529
  42
-0.20588701
  0
VERTEX
  5
b2
  8
Layer_0
  10
67.397903
  20
27.685364
  0
SEQEND
  0
POLYLINE
  5
b4
  8
Layer_0
  62
0
  66
1
  10
0
  20
0
  30
0
  0
VERTEX
  5
b4
  8
Layer_0
  10
16.068981
  20
41.636856
  0
VERTEX
  5
b5
  8
Layer_0
  10
32.766647
  20
42.751343
  42
-0.35139096
  0
VERTEX
  5
b6
  8
Layer_0
  10
35.844761
  20
40.603741
  42
0.095347343
  0
VERTEX
  5
b7
  8
Layer_0
  10
37.316589
  20
37.748138
  42
-0.35139118
  0
VERTEX
  5
b8
  8
Layer_0
  10
37.279804
  20
33.99506
  0
VERTEX
  5
b9
  8
Layer_0
  10
26.683979
  20
21.041962
  42
-0.20588656
  0
VERTEX
  5
ba
  8
Layer_0
  10
25.28175
  20
20.313606
  42
-0.20588652
  0
VERTEX
  5
bb
  8
Layer_0
  10
23.788506
  20
20.830303
  42
-0.1797302
  0
VERTEX
  5
bc
  8
Layer_0
  10
14.216616
  20
39.40139
  42
-0.20588539
  0
VERTEX
  5
bd
  8
Layer_0
  10
14.662172
  20
40.917381
  42
-0.2058859
  0
VERTEX
  5
be
  8
Layer_0
  10
16.068981
  20
41.636856
  0
SEQEND
  0
POLYLINE
  5
c0
  8
Layer_0
  62
0
  66
1
  10
0
  20
0
  30
0
  0
VERTEX
  5
c0
  8
Layer_0
  10
36.665264
  20
16.014788
  0
VERTEX
  5
c1
  8
Layer_0
  10
40.76519
  20
32.239609
  42
-0.35139155
  0
VERTEX
  5
c2
  8
Layer_0
  10
43.758869
  20
34.503422
  42
0.095346368
  0
VERTEX
  5
c3
  8
Layer_0
  10
46.929531
  20
35.020786
  42
-0.35139118
  0
VERTEX
  5
c4
  8
Layer_0
  10
50.487553
  20
33.826035
  0
VERTEX
  5
c5
  8
Layer_0
  10
59.532391
  20
19.746078
  42
-0.20588647
  0
VERTEX
  5
c6
  8
Layer_0
  10
59.791786
  20
18.187403
  42
-0.2058866
  0
VERTEX
  5
c7
  8
Layer_0
  10
58.83894
  20
16.926912
  42
-0.17973065
  0
VERTEX
  5
c8
  8
Layer_0
  10
38.21891
  20
13.562286
  42
-0.20588677
  0
VERTEX
  5
c9
  8
Layer_0
  10
36.914799
  20
14.454503
  42
-0.20588627
  0
VERTEX
  5
ca
  8
Layer_0
  10
36.665264
  20
16.014788
  0
SEQEND
  0
POLYLINE
  5
cc
  8
Layer_0
  62
0
  66
1
  10
0
  20
0
  30
0
  0
VERTEX
  5
cc
  8
Layer_0
  10
42.150002
  20
45.400002
  0
VERTEX
  5
cd
  8
Layer_0
  10
41.316719
  20
45.400002
  42
-0.21342193
  0
VERTEX
  5
ce
  8
Layer_0
  10
44
  20
46.599998
  42
-0.21342189
  0
VERTEX
  5
cf
  8
Layer_0
  10
46.683281
  20
45.400002
  0
VERTEX
  5
d0
  8
Layer_0
  10
45.849998
  20
45.400002
  0
VERTEX
  5
d1
  8
Layer_0
  10
45.849998
  20
40.599998
  0
VERTEX
  5
d2
  8
Layer_0
  10
46.683281
  20
40.599998
  42
-0.2134213
  0
VERTEX
  5
d3
  8
Layer_0
  10
44
  20
39.400002
  42
-0.21342144
  0
VERTEX
  5
d4
  8
Layer_0
  10
41.316719
  20
40.599998
  0
VERTEX
  5
d5
  8
Layer_0
  10
42.150002
  20
40.599998
  0
VERTEX
  5
d6
  8
Layer_0
  10
42.150002
  20
45.400002
  0
SEQEND
  0
POLYLINE
  5
d8
  8
Layer_0
  62
0
  66
1
  10
0
  20
0
  30
0
  0
VERTEX
  5
d8
  8
Layer_0
  10
13.689112
  20
60.5
  42
0.23844067
  0
VERTEX
  5
d9
  8
Layer_0
  10
8.1816368
  20
60.805756
  42
0.012498828
  0
VERTEX
  5
da
  8
Layer_0
  10
7.3363991
  20
58.993137
  42
0.23843943
  0
VERTEX
  5
db
  8
Layer_0
  10
11.11076
  20
54.970703
  42
0.021816601
  0
VERTEX
  5
dc
  8
Layer_0
  10
10.192596
  20
52.058666
  42
0.2384401
  0
VERTEX
  5
dd
  8
Layer_0
  10
4.7936516
  20
50.928566
  42
0.012497365
  0
VERTEX
  5
de
  8
Layer_0
  10
4.4463539
  20
48.958946
  42
0.23844005
  0
VERTEX
  5
df
  8
Layer_0
  10
9.1331863
  20
46.050453
  42
0.021819566
  0
VERTEX
  5
e0
  8
Layer_0
  10
9
  20
43
  42
0.23843989
  0
VERTEX
  5
e1
  8
Layer_0
  10
4.0775108
  20
40.511055
  42
0.012505069
  0
VERTEX
  5
e2
  8
Layer_0
  10
4.2518234
  20
38.518665
  42
0.23844007
  0
VERTEX
  5
e3
  8
Layer_0
  10
9.5317268
  20
36.922314
  42
0.021820255
  0
VERTEX
  5
e4
  8
Layer_0
  10
10.192596
  20
33.941334
  42
0.23844039
  0
VERTEX
  5
e5
  8
Layer_0
  10
6.0820236
  20
30.263163
  42
0.012501661
  0
VERTEX
  5
e6
  8
Layer_0
  10
6.7660637
  20
28.383778
  42
0.23844027
  0
VERTEX
  5
e7
  8
Layer_0
  10
12.279228
  20
28.208361
  42
0.021820799
  0
VERTEX
  5
e8
  8
Layer_0
  10
13.689112
  20
25.5
  42
0.23844011
  0
VERTEX
  5
e9
  8
Layer_0
  10
10.670582
  20
20.883266
  42
0.012500172
  0
VERTEX
  5
ea
  8
Layer_0
  10
11.817738
  20
19.244961
  42
0.23844027
  0
VERTEX
  5
eb
  8
Layer_0
  10
17.188444
  20
20.502434
  42
0.021822383
  0
VERTEX
  5
ec
  8
Layer_0
  10
19.251263
  20
18.251263
  42
0.23844021
  0
VERTEX
  5
ed
  8
Layer_0
  10
17.530487
  20
13.010587
  42
0.01249596
  0
VERTEX
  5
ee
  8
Layer_0
  10
19.062576
  20
11.725012
  42
0.23844021
  0
VERTEX
  5
ef
  8
Layer_0
  10
23.924826
  20
14.329679
  42
0.021820451
  0
VERTEX
  5
f0
  8
Layer_0
  10
26.5
  20
12.689111
  42
0.23844025
  0
VERTEX
  5
f1
  8
Layer_0
  10
26.194244
  20
7.1816368
  42
0.012497974
  0
VERTEX
  5
f2
  8
Layer_0
  10
28.006861
  20
6.336401
  42
0.2384404
  0
VERTEX
  5
f3
  8
Layer_0
  10
32.029297
  20
10.110758
  42
0.021821799
  0
VERTEX
  5
f4
  8
Layer_0
  10
34.941334
  20
9.1925964
  42
0.23844019
  0
VERTEX
  5
f5
  8
Layer_0
  10
36.071434
  20
3.7936497
  42
0.012499255
  0
VERTEX
  5
f6
  8
Layer_0
  10
38.04105
  20
3.4463539
  42
0.23844019
  0
VERTEX
  5
f7
  8
Layer_0
  10
40.949547
  20
8.1331844
  42
0.021820955
  0
VERTEX
  5
f8
  8
Layer_0
  10
44
  20
8
  42
0.2384404
  0
VERTEX
  5
f9
  8
Layer_0
  10
46.488945
  20
3.0775108
  42
0.012504545
  0
VERTEX
  5
fa
  8
Layer_0
  10
48.481335
  20
3.2518215
  42
0.23844043
  0
VERTEX
  5
fb
  8
Layer_0
  10
50.077686
  20
8.5317287
  42
0.021821213
  0
VERTEX
  5
fc
  8
Layer_0
  10
53.058666
  20
9.1925964
  42
0.23844039
  0
VERTEX
  5
fd
  8
Layer_0
  10
56.736839
  20
5.0820236
  42
0.012501818
  0
VERTEX
  5
fe
  8
Layer_0
  10
58.616222
  20
5.7660637
  42
0.23844048
  0
VERTEX
  5
ff
  8
Layer_0
  10
58.791641
  20
11.279227
  42
0.021822438
  0
VERTEX
  5
100
  8
Layer_0
  10
61.5
  20
12.689111
  42
0.23844053
  0
VERTEX
  5
101
  8
Layer_0
  10
66.116737
  20
9.6705818
  42
0.012493937
  0
VERTEX
  5
102
  8
Layer_0
  10
67.755035
  20
10.817736
  42
0.23844066
  0
VERTEX
  5
103
  8
Layer_0
  10
66.497566
  20
16.188444
  42
0.021821108
  0
VERTEX
  5
104
  8
Layer_0
  10
68.748734
  20
18.251263
  42
0.23844038
  0
VERTEX
  5
105
  8
Layer_0
  10
73.98941
  20
16.530487
  42
0.012500851
  0
VERTEX
  5
106
  8
Layer_0
  10
75.274986
  20
18.062576
  42
0.23844065
  0
VERTEX
  5
107
  8
Layer_0
  10
72.670319
  20
22.924824
  42
0.021821969
  0
VERTEX
  5
108
  8
Layer_0
  10
74.31089
  20
25.5
  42
0.23844016
  0
VERTEX
  5
109
  8
Layer_0
  10
79.818359
  20
25.194244
  42
0.012499947
  0
VERTEX
  5
10a
  8
Layer_0
  10
80.663605
  20
27.006861
  42
0.23844062
  0
VERTEX
  5
10b
  8
Layer_0
  10
76.889236
  20
31.029295
  42
0.021818575
  0
VERTEX
  5
10c
  8
Layer_0
  10
77.807404
  20
33.941334
  42
0.23844037
  0
VERTEX
  5
10d
  8
Layer_0
  10
83.206345
  20
35.071434
  42
0.012500128
  0
VERTEX
  5
10e
  8
Layer_0
  10
83.55365
  20
37.04105
  42
0.23844038
  0
VERTEX
  5
10f
  8
Layer_0
  10
78.866814
  20
39.949547
  42
0.021819607
  0
VERTEX
  5
110
  8
Layer_0
  10
79
  20
43
  42
0.23843982
  0
VERTEX
  5
111
  8
Layer_0
  10
83.922485
  20
45.488945
  42
0.01250222
  0
VERTEX
  5
112
  8
Layer_0
  10
83.748177
  20
47.481335
  42
0.23844007
  0
VERTEX
  5
113
  8
Layer_0
  10
78.468277
  20
49.077686
  42
0.021822639
  0
VERTEX
  5
114
  8
Layer_0
  10
77.807404
  20
52.058666
  42
0.23844042
  0
VERTEX
  5
115
  8
Layer_0
  10
81.917976
  20
55.736839
  42
0.0125022
  0
VERTEX
  5
116
  8
Layer_0
  10
81.233932
  20
57.616222
  42
0.23844041
  0
VERTEX
  5
117
  8
Layer_0
  10
75.720772
  20
57.791641
  42
0.021820864
  0
VERTEX
  5
118
  8
Layer_0
  10
74.31089
  20
60.5
  42
0.23844018
  0
VERTEX
  5
119
  8
Layer_0
  10
77.329422
  20
65.11673
  42
0.012501495
  0
VERTEX
  5
11a
  8
Layer_0
  10
76.182266
  20
66.755035
  42
0.23844128
  0
VERTEX
  5
11b
  8
Layer_0
  10
70.811554
  20
65.497566
  42
0.021820475
  0
VERTEX
  5
11c
  8
Layer_0
  10
68.748734
  20
67.748734
  42
0.23844014
  0
VERTEX
  5
11d
  8
Layer_0
  10
70.469513
  20
72.98941
  42
0.012504662
  0
VERTEX
  5
11e
  8
Layer_0
  10
68.937424
  20
74.274986
  42
0.23844032
  0
VERTEX
  5
11f
  8
Layer_0
  10
64.07518
  20
71.670319
  42
0.021819523
  0
VERTEX
  5
120
  8
Layer_0
  10
61.5
  20
73.31089
  42
0.23844032
  0
VERTEX
  5
121
  8
Layer_0
  10
61.805756
  20
78.818359
  42
0.012501666
  0
VERTEX
  5
122
  8
Layer_0
  10
59.993141
  20
79.663597
  42
0.23844107
  0
VERTEX
  5
123
  8
Layer_0
  10
55.970707
  20
75.889236
  42
0.021818406
  0
VERTEX
  5
124
  8
Layer_0
  10
53.058666
  20
76.807404
  42
0.23844042
  0
VERTEX
  5
125
  8
Layer_0
  10
51.928566
  20
82.206345
  42
0.012497285
  0
VERTEX
  5
126
  8
Layer_0
  10
49.95895
  20
82.55365
  42
0.23844012
  0
VERTEX
  5
127
  8
Layer_0
  10
47.050453
  20
77.866814
  42
0.021821483
  0
VERTEX
  5
128
  8
Layer_0
  10
44
  20
78
  42
0.23843998
  0
VERTEX
  5
129
  8
Layer_0
  10
41.511055
  20
82.922485
  42
0.012502317
  0
VERTEX
  5
12a
  8
Layer_0
  10
39.518665
  20
82.748177
  42
0.23843996
  0
VERTEX
  5
12b
  8
Layer_0
  10
37.922314
  20
77.468269
  42
0.021821329
  0
VERTEX
  5
12c
  8
Layer_0
  10
34.941334
  20
76.807404
  42
0.23844032
  0
VERTEX
  5
12d
  8
Layer_0
  10
31.263165
  20
80.917976
  42
0.012502183
  0
VERTEX
  5
12e
  8
Layer_0
  10
29.383778
  20
80.233932
  42
0.23844041
  0
VERTEX
  5
12f
  8
Layer_0
  10
29.208363
  20
74.720772
  42
0.021821253
  0
VERTEX
  5
130
  8
Layer_0
  10
26.5
  20
73.31089
  42
0.23843908
  0
VERTEX
  5
131
  8
Layer_0
  10
21.883265
  20
76.329422
  42
0.012495866
  0
VERTEX
  5
132
  8
Layer_0
  10
20.244961
  20
75.182266
  42
0.23844046
  0
VERTEX
  5
133
  8
Layer_0
  10
21.502434
  20
69.811554
  42
0.021820746
  0
VERTEX
  5
134
  8
Layer_0
  10
19.251263
  20
67.748734
  42
0.23843985
  0
VERTEX
  5
135
  8
Layer_0
  10
14.010588
  20
69.469513
  42
0.012501706
  0
VERTEX
  5
136
  8
Layer_0
  10
12.725012
  20
67.937424
  42
0.23844026
  0
VERTEX
  5
137
  8
Layer_0
  10
15.329678
  20
63.075176
  42
0.021821199
  0
VERTEX
  5
138
  8
Layer_0
  10
13.689112
  20
60.5
  0
SEQEND
  0
POLYLINE
  5
13a
  8
Layer_0
  62
0
  66
1
  10
0
  20
0
  30
0
  0
VERTEX
  5
13a
  8
Layer_0
  10
144.79544
  20
61.520237
  0
VERTEX
  5
13b
  8
Layer_0
  10
131.94182
  20
50.803955
  42
-0.35139165
  0
VERTEX
  5
13c
  8
Layer_0
  10
128.18924
  20
50.732136
  42
0.095347376
  0
VERTEX
  5
13d
  8
Layer_0
  10
125.32002
  20
52.177246
  42
-0.35139145
  0
VERTEX
  5
13e
  8
Layer_0
  10
123.14378
  20
55.235176
  0
VERTEX
  5
13f
  8
Layer_0
  10
124.10235
  20
71.94252
  42
-0.20588638
  0
VERTEX
  5
140
  8
Layer_0
  10
124.80865
  20
73.355988
  42
-0.20588712
  0
VERTEX
  5
141
  8
Layer_0
  10
126.32042
  20
73.815674
  42
-0.17973023
  0
VERTEX
  5
142
  8
Layer_0
  10
144.98006
  20
64.417557
  42
-0.20588725
  0
VERTEX
  5
143
  8
Layer_0
  10
145.51067
  20
62.929207
  42
-0.20588831
  0
VERTEX
  5
144
  8
Layer_0
  10
144.79544
  20
61.520237
  0
SEQEND
  0
POLYLINE
  5
146
  8
Layer_0
  62
0
  66
1
  10
0
  20
0
  30
0
  0
VERTEX
  5
146
  8
Layer_0
  10
113.07242
  20
70.142731
  0
VERTEX
  5
147
  8
Layer_0
  10
119.29222
  20
54.606705
  42
-0.35139123
  0
VERTEX
  5
148
  8
Layer_0
  10
118.20091
  20
51.015602
  42
0.095347509
  0
VERTEX
  5
149
  8
Layer_0
  10
115.9399
  20
48.733376
  42
-0.35139115
  0
VERTEX
  5
14a
  8
Layer_0
  10
112.35914
  20
47.608597
  0
VERTEX
  5
14b
  8
Layer_0
  10
96.765717
  20
53.683098
  42
-0.20588555
  0
VERTEX
  5
14c
  8
Layer_0
  10
95.639694
  20
54.791626
  42
-0.20588778
  0
VERTEX
  5
14d
  8
Layer_0
  10
95.66967
  20
56.371452
  42
-0.1797305
  0
VERTEX
  5
14e
  8
Layer_0
  10
110.37395
  20
71.213638
  42
-0.20588582
  0
VERTEX
  5
14f
  8
Layer_0
  10
111.95343
  20
71.258362
  42
-0.20588629
  0
VERTEX
  5
150
  8
Layer_0
  10
113.07242
  20
70.142731
  0
SEQEND
  0
POLYLINE
  5
152
  8
Layer_0
  62
0
  66
1
  10
0
  20
0
  30
0
  0
VERTEX
  5
152
  8
Layer_0
  10
146.3979
  20
28.685356
  0
VERTEX
  5
153
  8
Layer_0
  10
132.23413
  20
37.598362
  42
-0.35139133
  0
VERTEX
  5
154
  8
Layer_0
  10
131.00621
  20
41.145077
  42
0.095347316
  0
VERTEX
  5
155
  8
Layer_0
  10
131.49396
  20
44.320427
  42
-0.35139176
  0
VERTEX
  5
156
  8
Layer_0
  10
133.72972
  20
47.33511
  0
VERTEX
  5
157
  8
Layer_0
  10
149.91556
  20
51.586315
  42
-0.20588655
  0
VERTEX
  5
158
  8
Layer_0
  10
151.47812
  20
51.351357
  42
-0.20588495
  0
VERTEX
  5
159
  8
Layer_0
  10
152.38246
  20
50.055634
  42
-0.17973031
  0
VERTEX
  5
15a
  8
Layer_0
  10
149.21048
  20
29.405092
  42
-0.20588684
  0
VERTEX
  5
15b
  8
Layer_0
  10
147.95892
  20
28.440521
  42
-0.20588701
  0
VERTEX
  5
15c
  8
Layer_0
  10
146.3979
  20
28.685356
  0
SEQEND
  0
POLYLINE
  5
15e
  8
Layer_0
  62
0
  66
1
  10
0
  20
0
  30
0
  0
VERTEX
  5
15e
  8
Layer_0
  10
95.068985
  20
42.636848
  0
VERTEX
  5
15f
  8
Layer_0
  10
111.76665
  20
43.751335
  42
-0.35139096
  0
VERTEX
  5
160
  8
Layer_0
  10
114.84476
  20
41.603733
  42
0.095347343
  0
VERTEX
  5
161
  8
Layer_0
  10
116.31659
  20
38.748131
  42
-0.35139118
  0
VERTEX
  5
162
  8
Layer_0
  10
116.2798
  20
34.995052
  0
VERTEX
  5
163
  8
Layer_0
  10
105.68398
  20
22.041954
  42
-0.20588656
  0
VERTEX
  5
164
  8
Layer_0
  10
104.28175
  20
21.313599
  42
-0.20588652
  0
VERTEX
  5
165
  8
Layer_0
  10
102.78851
  20
21.830296
  42
-0.1797302
  0
VERTEX
  5
166
  8
Layer_0
  10
93.216614
  20
40.401382
  42
-0.20588539
  0
VERTEX
  5
167
  8
Layer_0
  10
93.66217
  20
41.917374
  42
-0.2058859
  0
VERTEX
  5
168
  8
Layer_0
  10
95.068985
  20
42.636848
  0
SEQEND
  0
POLYLINE
  5
16a
  8
Layer_0
  62
0
  66
1
  10
0
  20
0
  30
0
  0
VERTEX
  5
16a
  8
Layer_0
  10
115.66527
  20
17.01478
  0
VERTEX
  5
16b
  8
Layer_0
  10
119.76519
  20
33.239601
  42
-0.35139155
  0
VERTEX
  5
16c
  8
Layer_0
  10
122.75887
  20
35.503414
  42
0.095346368
  0
VERTEX
  5
16d
  8
Layer_0
  10
125.92953
  20
36.020779
  42
-0.35139118
  0
VERTEX
  5
16e
  8
Layer_0
  10
129.48755
  20
34.826027
  0
VERTEX
  5
16f
  8
Layer_0
  10
138.53239
  20
20.746071
  42
-0.20588647
  0
VERTEX
  5
170
  8
Layer_0
  10
138.79179
  20
19.187395
  42
-0.2058866
  0
VERTEX
  5
171
  8
Layer_0
  10
137.83894
  20
17.926905
  42
-0.17973065
  0
VERTEX
  5
172
  8
Layer_0
  10
117.21891
  20
14.562279
  42
-0.20588677
  0
VERTEX
  5
173
  8
Layer_0
  10
115.91479
  20
15.454495
  42
-0.20588627
  0
VERTEX
  5
174
  8
Layer_0
  10
115.66527
  20
17.01478
  0
SEQEND
  0
POLYLINE
  5
176
  8
Layer_0
  62
0
  66
1
  10
0
  20
0
  30
0
  0
VERTEX
  5
176
  8
Layer_0
  10
121.15
  20
46.399994
  0
VERTEX
  5
177
  8
Layer_0
  10
120.31672
  20
46.399994
  42
-0.21342193
  0
VERTEX
  5
178
  8
Layer_0
  10
123
  20
47.599991
  42
-0.21342189
  0
VERTEX
  5
179
  8
Layer_0
  10
125.68328
  20
46.399994
  0
VERTEX
  5
17a
  8
Layer_0
  10
124.85
  20
46.399994
  0
VERTEX
  5
17b
  8
Layer_0
  10
124.85
  20
41.599991
  0
VERTEX
  5
17c
  8
Layer_0
  10
125.68328
  20
41.599991
  42
-0.2134213
  0
VERTEX
  5
17d
  8
Layer_0
  10
123
  20
40.399994
  42
-0.21342144
  0
VERTEX
  5
17e
  8
Layer_0
  10
120.31672
  20
41.599991
  0
VERTEX
  5
17f
  8
Layer_0
  10
121.15
  20
41.599991
  0
VERTEX
  5
180
  8
Layer_0
  10
121.15
  20
46.399994
  0
SEQEND
  0
POLYLINE
  5
182
  8
Layer_0
  62
0
  66
1
  10
0
  20
0
  30
0
  0
VERTEX
  5
182
  8
Layer_0
  10
92.68911
  20
61.499992
  42
0.23844067
  0
VERTEX
  5
183
  8
Layer_0
  10
87.181641
  20
61.805748
  42
0.012498828
  0
VERTEX
  5
184
  8
Layer_0
  10
86.336395
  20
59.99313
  42
0.23843943
  0
VERTEX
  5
185
  8
Layer_0
  10
90.110764
  20
55.970695
  42
0.021816601
  0
VERTEX
  5
186
  8
Layer_0
  10
89.192596
  20
53.058659
  42
0.2384401
  0
VERTEX
  5
187
  8
Layer_0
  10
83.793655
  20
51.928558
  42
0.012497365
  0
VERTEX
  5
188
  8
Layer_0
  10
83.44635
  20
49.958939
  42
0.23844005
  0
VERTEX
  5
189
  8
Layer_0
  10
88.133186
  20
47.050446
  42
0.021819566
  0
VERTEX
  5
18a
  8
Layer_0
  10
88
  20
43.999992
  42
0.23843989
  0
VERTEX
  5
18b
  8
Layer_0
  10
83.077515
  20
41.511047
  42
0.012505069
  0
VERTEX
  5
18c
  8
Layer_0
  10
83.251823
  20
39.518658
  42
0.23844007
  0
VERTEX
  5
18d
  8
Layer_0
  10
88.531723
  20
37.922306
  42
0.021820255
  0
VERTEX
  5
18e
  8
Layer_0
  10
89.192596
  20
34.941326
  42
0.23844039
  0
VERTEX
  5
18f
  8
Layer_0
  10
85.082024
  20
31.263155
  42
0.012501661
  0
VERTEX
  5
190
  8
Layer_0
  10
85.766068
  20
29.38377
  42
0.23844027
  0
VERTEX
  5
191
  8
Layer_0
  10
91.279228
  20
29.208353
  42
0.021820799
  0
VERTEX
  5
192
  8
Layer_0
  10
92.68911
  20
26.499992
  42
0.23844011
  0
VERTEX
  5
193
  8
Layer_0
  10
89.670578
  20
21.883259
  42
0.012500172
  0
VERTEX
  5
194
  8
Layer_0
  10
90.817734
  20
20.244953
  42
0.23844027
  0
VERTEX
  5
195
  8
Layer_0
  10
96.188446
  20
21.502426
  42
0.021822383
  0
VERTEX
  5
196
  8
Layer_0
  10
98.251266
  20
19.251255
  42
0.23844021
  0
VERTEX
  5
197
  8
Layer_0
  10
96.530487
  20
14.010579
  42
0.01249596
  0
VERTEX
  5
198
  8
Layer_0
  10
98.062576
  20
12.725004
  42
0.23844021
  0
VERTEX
  5
199
  8
Layer_0
  10
102.92483
  20
15.329671
  42
0.021820451
  0
VERTEX
  5
19a
  8
Layer_0
  10
105.5
  20
13.689103
  42
0.23844025
  0
VERTEX
  5
19b
  8
Layer_0
  10
105.19424
  20
8.1816292
  42
0.012497974
  0
VERTEX
  5
19c
  8
Layer_0
  10
107.00686
  20
7.3363934
  42
0.2384404
  0
VERTEX
  5
19d
  8
Layer_0
  10
111.0293
  20
11.11075
  42
0.021821799
  0
VERTEX
  5
19e
  8
Layer_0
  10
113.94133
  20
10.192589
  42
0.23844019
  0
VERTEX
  5
19f
  8
Layer_0
  10
115.07143
  20
4.793642
  42
0.012499255
  0
VERTEX
  5
1a0
  8
Layer_0
  10
117.04105
  20
4.4463463
  42
0.23844019
  0
VERTEX
  5
1a1
  8
Layer_0
  10
119.94955
  20
9.1331768
  42
0.021820955
  0
VERTEX
  5
1a2
  8
Layer_0
  10
123
  20
8.9999924
  42
0.2384404
  0
VERTEX
  5
1a3
  8
Layer_0
  10
125.48895
  20
4.0775032
  42
0.012504545
  0
VERTEX
  5
1a4
  8
Layer_0
  10
127.48133
  20
4.2518139
  42
0.23844043
  0
VERTEX
  5
1a5
  8
Layer_0
  10
129.07768
  20
9.5317211
  42
0.021821213
  0
VERTEX
  5
1a6
  8
Layer_0
  10
132.05867
  20
10.192589
  42
0.23844039
  0
VERTEX
  5
1a7
  8
Layer_0
  10
135.73683
  20
6.082016
  42
0.012501818
  0
VERTEX
  5
1a8
  8
Layer_0
  10
137.61623
  20
6.7660561
  42
0.23844048
  0
VERTEX
  5
1a9
  8
Layer_0
  10
137.79164
  20
12.27922
  42
0.021822438
  0
VERTEX
  5
1aa
  8
Layer_0
  10
140.5
  20
13.689103
  42
0.23844053
  0
VERTEX
  5
1ab
  8
Layer_0
  10
145.11673
  20
10.670574
  42
0.012493937
  0
VERTEX
  5
1ac
  8
Layer_0
  10
146.75504
  20
11.817728
  42
0.23844066
  0
VERTEX
  5
1ad
  8
Layer_0
  10
145.49756
  20
17.188437
  42
0.021821108
  0
VERTEX
  5
1ae
  8
Layer_0
  10
147.74873
  20
19.251255
  42
0.23844038
  0
VERTEX
  5
1af
  8
Layer_0
  10
152.98941
  20
17.530479
  42
0.012500851
  0
VERTEX
  5
1b0
  8
Layer_0
  10
154.27499
  20
19.062569
  42
0.23844065
  0
VERTEX
  5
1b1
  8
Layer_0
  10
151.67032
  20
23.924816
  42
0.021821969
  0
VERTEX
  5
1b2
  8
Layer_0
  10
153.31088
  20
26.499992
  42
0.23844016
  0
VERTEX
  5
1b3
  8
Layer_0
  10
158.81836
  20
26.194237
  42
0.012499947
  0
VERTEX
  5
1b4
  8
Layer_0
  10
159.6636
  20
28.006853
  42
0.23844062
  0
VERTEX
  5
1b5
  8
Layer_0
  10
155.88924
  20
32.029285
  42
0.021818575
  0
VERTEX
  5
1b6
  8
Layer_0
  10
156.8074
  20
34.941326
  42
0.23844037
  0
VERTEX
  5
1b7
  8
Layer_0
  10
162.20634
  20
36.071426
  42
0.012500128
  0
VERTEX
  5
1b8
  8
Layer_0
  10
162.55365
  20
38.041042
  42
0.23844038
  0
VERTEX
  5
1b9
  8
Layer_0
  10
157.86682
  20
40.949539
  42
0.021819607
  0
VERTEX
  5
1ba
  8
Layer_0
  10
158
  20
43.999992
  42
0.23843982
  0
VERTEX
  5
1bb
  8
Layer_0
  10
162.92249
  20
46.488937
  42
0.01250222
  0
VERTEX
  5
1bc
  8
Layer_0
  10
162.74817
  20
48.481327
  42
0.23844007
  0
VERTEX
  5
1bd
  8
Layer_0
  10
157.46828
  20
50.077679
  42
0.021822639
  0
VERTEX
  5
1be
  8
Layer_0
  10
156.8074
  20
53.058659
  42
0.23844042
  0
VERTEX
  5
1bf
  8
Layer_0
  10
160.91797
  20
56.736832
  42
0.0125022
  0
VERTEX
  5
1c0
  8
Layer_0
  10
160.23393
  20
58.616215
  42
0.23844041
  0
VERTEX
  5
1c1
  8
Layer_0
  10
154.72076
  20
58.791634
  42
0.021820864
  0
VERTEX
  5
1c2
  8
Layer_0
  10
153.31088
  20
61.499992
  42
0.23844018
  0
VERTEX
  5
1c3
  8
Layer_0
  10
156.32942
  20
66.11673
  42
0.012501495
  0
VERTEX
  5
1c4
  8
Layer_0
  10
155.18227
  20
67.755035
  42
0.23844128
  0
VERTEX
  5
1c5
  8
Layer_0
  10
149.81155
  20
66.497559
  42
0.021820475
  0
VERTEX
  5
1c6
  8
Layer_0
  10
147.74873
  20
68.748734
  42
0.23844014
  0
VERTEX
  5
1c7
  8
Layer_0
  10
149.46951
  20
73.98941
  42
0.012504662
  0
VERTEX
  5
1c8
  8
Layer_0
  10
147.93742
  20
75.274979
  42
0.23844032
  0
VERTEX
  5
1c9
  8
Layer_0
  10
143.07518
  20
72.670319
  42
0.021819523
  0
VERTEX
  5
1ca
  8
Layer_0
  10
140.5
  20
74.310883
  42
0.23844032
  0
VERTEX
  5
1cb
  8
Layer_0
  10
140.80576
  20
79.818359
  42
0.012501666
  0
VERTEX
  5
1cc
  8
Layer_0
  10
138.99313
  20
80.663589
  42
0.23844107
  0
VERTEX
  5
1cd
  8
Layer_0
  10
134.9707
  20
76.889236
  42
0.021818406
  0
VERTEX
  5
1ce
  8
Layer_0
  10
132.05867
  20
77.807396
  42
0.23844042
  0
VERTEX
  5
1cf
  8
Layer_0
  10
130.92856
  20
83.206345
  42
0.012497285
  0
VERTEX
  5
1d0
  8
Layer_0
  10
128.95895
  20
83.553635
  42
0.23844012
  0
VERTEX
  5
1d1
  8
Layer_0
  10
126.05045
  20
78.866806
  42
0.021821483
  0
VERTEX
  5
1d2
  8
Layer_0
  10
123
  20
78.999992
  42
0.23843998
  0
VERTEX
  5
1d3
  8
Layer_0
  10
120.51105
  20
83.922485
  42
0.012502317
  0
VERTEX
  5
1d4
  8
Layer_0
  10
118.51867
  20
83.748169
  42
0.23843996
  0
VERTEX
  5
1d5
  8
Layer_0
  10
116.92232
  20
78.468262
  42
0.021821329
  0
VERTEX
  5
1d6
  8
Layer_0
  10
113.94134
  20
77.807396
  42
0.23844032
  0
VERTEX
  5
1d7
  8
Layer_0
  10
110.26316
  20
81.917969
  42
0.012502183
  0
VERTEX
  5
1d8
  8
Layer_0
  10
108.38378
  20
81.233932
  42
0.23844041
  0
VERTEX
  5
1d9
  8
Layer_0
  10
108.20836
  20
75.720764
  42
0.021821253
  0
VERTEX
  5
1da
  8
Layer_0
  10
105.5
  20
74.310883
  42
0.23843908
  0
VERTEX
  5
1db
  8
Layer_0
  10
100.88326
  20
77.329407
  42
0.012495866
  0
VERTEX
  5
1dc
  8
Layer_0
  10
99.244965
  20
76.182251
  42
0.23844046
  0
VERTEX
  5
1dd
  8
Layer_0
  10
100.50243
  20
70.811546
  42
0.021820746
  0
VERTEX
  5
1de
  8
Layer_0
  10
98.251266
  20
68.748734
  42
0.23843985
  0
VERTEX
  5
1df
  8
Layer_0
  10
93.01059
  20
70.469505
  42
0.012501706
  0
VERTEX
  5
1e0
  8
Layer_0
  10
91.725014
  20
68.937416
  42
0.23844026
  0
VERTEX
  5
1e1
  8
Layer_0
  10
94.329681
  20
64.075165
  42
0.021821199
  0
VERTEX
  5
1e2
  8
Layer_0
  10
92.68911
  20
61.499992
  0
SEQEND
  0
ENDSEC
  0
EOF
