  0
SECTION
  2
HEADER
  9
$ACADVER
  1
AC1009
  0
ENDSEC
  0
SECTION
  2
ENTITIES
  0
CIRCLE
  5
90
  8
Layer_0
  62
0
  10
111.93613
  20
32.999996
  30
0
  40
1
  0
CIRCLE
  5
90
  8
Layer_0
  62
0
  10
7.9359055
  20
33.000004
  30
0
  40
1
  0
POLYLINE
  5
90
  8
Layer_0
  62
0
  66
1
  10
0
  20
0
  30
0
  0
VERTEX
  5
90
  8
Layer_0
  10
15.185936
  20
52.608807
  0
VERTEX
  5
91
  8
Layer_0
  10
15.185936
  20
57.608807
  42
-0.41421356
  0
VERTEX
  5
92
  8
Layer_0
  10
16.185936
  20
58.608807
  0
VERTEX
  5
93
  8
Layer_0
  10
28.18594
  20
58.608807
  42
-0.41421356
  0
VERTEX
  5
94
  8
Layer_0
  10
29.18594
  20
57.608807
  0
VERTEX
  5
95
  8
Layer_0
  10
29.18594
  20
52.608807
  42
-0.41421356
  0
VERTEX
  5
96
  8
Layer_0
  10
28.18594
  20
51.608807
  0
VERTEX
  5
97
  8
Layer_0
  10
16.185936
  20
51.608807
  42
-0.41421356
  0
VERTEX
  5
98
  8
Layer_0
  10
15.185936
  20
52.608807
  0
SEQEND
  0
POLYLINE
  5
9a
  8
Layer_0
  62
0
  66
1
  10
0
  20
0
  30
0
  0
VERTEX
  5
9a
  8
Layer_0
  10
120
  20
50.5
  42
0.41421356
  0
VERTEX
  5
9b
  8
Layer_0
  10
105
  20
65.5
  0
VERTEX
  5
9c
  8
Layer_0
  10
15
  20
65.5
  42
0.41421356
  0
VERTEX
  5
9d
  8
Layer_0
  10
0
  20
50.500008
  0
VERTEX
  5
9e
  8
Layer_0
  10
0
  20
15.500006
  42
0.41421356
  0
VERTEX
  5
9f
  8
Layer_0
  10
15
  20
0.50000381
  0
VERTEX
  5
a0
  8
Layer_0
  10
105
  20
0.5
  42
0.41421356
  0
VERTEX
  5
a1
  8
Layer_0
  10
120
  20
15.499998
  0
VERTEX
  5
a2
  8
Layer_0
  10
120
  20
50.5
  0
SEQEND
  0
POLYLINE
  5
a4
  8
Layer_0
  62
0
  66
1
  10
0
  20
0
  30
0
  0
VERTEX
  5
a4
  8
Layer_0
  10
44.788574
  20
54.524097
  0
VERTEX
  5
a5
  8
Layer_0
  10
44.878906
  20
54.546009
  0
VERTEX
  5
a6
  8
Layer_0
  10
44.963867
  20
54.582523
  0
VERTEX
  5
a7
  8
Layer_0
  10
45.037598
  20
54.630569
  0
VERTEX
  5
a8
  8
Layer_0
  10
45.098633
  20
54.68861
  0
VERTEX
  5
a9
  8
Layer_0
  10
45.14502
  20
54.755878
  0
VERTEX
  5
aa
  8
Layer_0
  10
45.172852
  20
54.826603
  0
VERTEX
  5
ab
  8
Layer_0
  10
45.186035
  20
54.928463
  0
VERTEX
  5
ac
  8
Layer_0
  10
45.186035
  20
55.948978
  0
VERTEX
  5
ad
  8
Layer_0
  10
45.172852
  20
56.050838
  0
VERTEX
  5
ae
  8
Layer_0
  10
45.14502
  20
56.121948
  0
VERTEX
  5
af
  8
Layer_0
  10
45.098633
  20
56.188828
  0
VERTEX
  5
b0
  8
Layer_0
  10
45.037598
  20
56.246868
  0
VERTEX
  5
b1
  8
Layer_0
  10
44.963867
  20
56.294914
  0
VERTEX
  5
b2
  8
Layer_0
  10
44.878906
  20
56.331432
  0
VERTEX
  5
b3
  8
Layer_0
  10
44.788574
  20
56.35334
  0
VERTEX
  5
b4
  8
Layer_0
  10
44.65918
  20
56.36372
  0
VERTEX
  5
b5
  8
Layer_0
  10
31.570313
  20
56.36372
  0
VERTEX
  5
b6
  8
Layer_0
  10
31.440918
  20
56.35334
  0
VERTEX
  5
b7
  8
Layer_0
  10
31.350586
  20
56.331432
  0
VERTEX
  5
b8
  8
Layer_0
  10
31.265625
  20
56.294914
  0
VERTEX
  5
b9
  8
Layer_0
  10
31.191895
  20
56.246868
  0
VERTEX
  5
ba
  8
Layer_0
  10
31.130859
  20
56.188828
  0
VERTEX
  5
bb
  8
Layer_0
  10
31.084473
  20
56.121948
  0
VERTEX
  5
bc
  8
Layer_0
  10
31.056641
  20
56.050838
  0
VERTEX
  5
bd
  8
Layer_0
  10
31.043457
  20
55.948978
  0
VERTEX
  5
be
  8
Layer_0
  10
31.043457
  20
54.928463
  0
VERTEX
  5
bf
  8
Layer_0
  10
31.056641
  20
54.826603
  0
VERTEX
  5
c0
  8
Layer_0
  10
31.084473
  20
54.755878
  0
VERTEX
  5
c1
  8
Layer_0
  10
31.130859
  20
54.68861
  0
VERTEX
  5
c2
  8
Layer_0
  10
31.191895
  20
54.630569
  0
VERTEX
  5
c3
  8
Layer_0
  10
31.265625
  20
54.582523
  0
VERTEX
  5
c4
  8
Layer_0
  10
31.350586
  20
54.546009
  0
VERTEX
  5
c5
  8
Layer_0
  10
31.440918
  20
54.524097
  0
VERTEX
  5
c6
  8
Layer_0
  10
31.570313
  20
54.513721
  0
VERTEX
  5
c7
  8
Layer_0
  10
44.65918
  20
54.513721
  0
VERTEX
  5
c8
  8
Layer_0
  10
44.788574
  20
54.524097
  0
SEQEND
  0
ENDSEC
  0
EOF
