M48
;Layer_Color=9474304
;FILE_FORMAT=4:4
METRIC,LZ
;TYPE=PLATED
T1F00S00C0.3000
T2F00S00C0.4000
T3F00S00C0.5000
T5F00S00C0.7000
T6F00S00C0.8000
T7F00S00C0.9000
T8F00S00C1.0000
T9F00S00C1.1000
T10F00S00C1.5000
T11F00S00C1.9000
T12F00S00C2.0000
T13F00S00C2.1000
%
T01
X00588415Y00433036
X006445Y00432902
T02
X00008Y0006982
X00053999Y00061999
X000675Y00066
X00085499Y00084499
X00109076Y000995
X00097592Y001425
X00087
X00022Y00159
X00103753Y00319
X00135Y00317
X00125279Y00303
X001575Y00300499
X00159Y00310499
X001695Y003185
X001795Y00321499
X001875Y00314999
X00165Y002925
X001542Y00275195
X00227Y0028537
X00241Y00285227
X00228Y00332854
X002155Y00333
X002155Y00344
X00222896Y003515
X00223Y00373499
X00233Y003735
X00242899Y00374
X00252866Y00374633
X00275143Y00384165
X00289499Y00372999
X00288Y00363399
Y003525
X00290999Y00329999
X00299Y003365
X002985Y00318832
X003245Y00323273
X003165Y00337736
X00368499Y00343499
X003795Y00348037
X00379499Y00334999
X00388787Y00340201
X00388499Y00365499
X00398499Y00364999
X00374999Y00361499
X004345Y0035
X00440603Y00340103
X00444499Y00381999
X004345Y003805
X00490999Y00386499
X00481499Y00399208
X00515Y00342265
X00497499Y00194151
X0047525Y0016081
X004715Y00149655
X00443Y001365
X00433Y001345
X00423
X00425Y00103878
X00443Y00094
X004455Y000835
X004675Y00068225
X00476323Y000615
X004915Y000335
X005
X00509765Y00087407
X00502576Y00097076
X00373Y0011021
X00358499Y001205
X00327Y00143065
X0030384
X003115Y001695
X002881Y001655
X00334Y0016
X00388787Y00164
X00384621Y00203
X00321Y00213
X00218491Y001639
Y0014271
X00195868Y00132
X00202484Y00125384
X001749Y001322
X00158149Y00107634
X00151Y000955
X00136Y00105
Y00122
X002725Y00108
X002265Y000225
X00258Y003335
X00192Y00375
X00175699
X0016755Y00384
X0016997Y003954
X001599Y00399
X001545Y00382999
X001545Y00372332
X0018375Y003875
X002025Y003954
X00127Y00395
X00538Y00392499
X00603623Y00400716
X00701294Y00346293
X00733Y003315
X00758422Y00304798
X00752928Y00278851
X00753178Y00263634
Y00248
X00735713Y00229
X007215Y002
X006875Y001755
X00677
Y001625
X00670424Y001091
X00659263
X00647085
X006196Y00103
X005985Y00108
X00575161
X00564
X00551822
X00547Y000633
X0055Y000335
X0054
X00568Y00036211
X005185Y000775
X0052025Y00137149
X0052Y00152366
Y00168
Y00221649
X0051975Y00236866
Y002525
X005805Y001755
X00591
X005805Y001625
X00641999Y00219012
X00657633
X0067285Y00219262
X006945Y001091
X00717463Y00106
X00717Y001295
X0074173Y00088
X007805Y0008913
X00808
X008215Y001325
X00828Y001535
X00844Y001615
X0086643Y001855
X008565Y002475
X00844015Y002745
Y00290134
X00843765Y00305351
X008635Y003025
X0086325Y00317717
X008635Y00286866
X00901Y002899
X009015Y00301376
X00913Y003015
Y00276786
X00901843
X00910679Y0023379
Y0022121
X00795101Y00296178
X00795499Y003115
X0086Y000525
Y00043093
X00632151Y00088333
X00921179Y0022121
Y0023379
X00918Y00252
X00952998Y0027
X009741Y003
X00973869Y00313207
X00971821Y0023379
X00982321Y0023379
Y0022121
X00971821Y0022121
X00953701Y00516
X00932267Y00514
X008376Y004391
X00692Y00446
X006772Y004362
X006684Y004433
X00668499Y00428999
X00659Y00407463
X00657899Y00450899
X00653861Y00461575
X00679708Y00462999
X00624063Y00458939
X00617383Y0045015
X006089Y004434
X00608132Y0045675
X005975Y004615
X006164Y004314
X006085Y004115
X00538Y00407
Y004325
X00548639Y00436675
X005579Y004414
X005685Y005275
X00616326Y00501129
X00641999Y00495999
X00482Y004875
X00470999Y00487999
X00453499Y00490499
X00474499Y00460999
X00481499Y00453999
X00503999Y00457999
X004745Y0040721
X00456005Y00407505
X00436589Y00403468
X00427411Y004118
X004085Y00410001
X00418Y00428
X00445999Y00422499
X00371999Y004275
X00372Y004125
X0032Y004275
X00299782Y00443717
X0028Y004523
X002755Y00479373
X001835Y004575
X00154625Y00447025
X00161183Y00439
X00154907Y00431699
X0016Y00418999
X0016Y00409148
X001245Y00424
X00125251Y00438
X00125Y0051279
X00117Y00490362
X00097424Y0047575
X00117Y00405
T03
X000365Y00132
X00049501Y00131866
X00061225
X004895Y00322
X00464Y003695
T05
X00372Y00228
X00392
X00412
X00432
X00452
X00472
X00492
X00482Y00248
X00462
X00442
X00422
X00402
X00382
X00362
T06
X00017Y002035
X00052
X000875Y002571
Y003079
X00052Y002935
X00017
X00128553Y0023
X00179352
X003036Y003645
X003544Y003645
X00537615Y003585
X005386Y0032
X005894
X006197Y00315
X006196Y003585
X00588415
X006704
X006705Y00315
X009741Y003335
X010249
X009424Y004595
Y00496
X008916
Y004595
X000535Y004816
X000175
Y005324
X000535
T07
X003975Y00313
X004175
X004375Y00313
X004575Y00313
X00573Y00265
X00593
X00613
X00633
X00885Y00252
Y00287
X00603Y00506
X00568
X00467Y005045
X00432Y005045
T08
X00015Y003318
Y003572
X00665Y000782
Y000528
X00983Y004841
Y005095
Y005349
X007881Y005346
X007627
X007373
X007119
X006865
X006611
X00661Y00502
X006864
X007118
X007372
X007626
X00788
T09
X00819647Y00101572
X00897428Y00179354
X00819647Y00323572
X00897428Y00401354
T10
X002485Y000947
X003485
T11
X0096Y001
Y00147
Y00194
T12
X0018375Y001065
X0091625
T13
X000335Y00025
X010035
Y0040495
X000335Y00405
M30
