0
SECTION
2
HEADER
9
$INSUNITS
70
4
9
$ACADVER
1
AC1014
9
$HANDSEED
5
FFFF
0
ENDSEC
0
SECTION
2
TABLES
0
TABLE
2
VPORT
5
8
100
AcDbSymbolTable
0
ENDTAB
0
TABLE
2
LTYPE
5
5
100
AcDbSymbolTable
0
LTYPE
5
14
100
AcDbSymbolTableRecord
100
AcDbLinetypeTableRecord
2
BYBLOCK
70
0
0
LTYPE
5
15
100
AcDbSymbolTableRecord
100
AcDbLinetypeTableRecord
2
BYLAYER
70
0
0
ENDTAB
0
TABLE
2
LAYER
5
2
100
AcDbSymbolTable
70
2
0
LAYER
5
50
100
AcDbSymbolTableRecord
100
AcDbLayerTableRecord
2
0
70
0
6
CONTINUOUS
0
ENDTAB
0
TABLE
2
STYLE
5
3
100
AcDbSymbolTable
70
1
0
STYLE
5
11
100
AcDbSymbolTableRecord
100
AcDbTextStyleTableRecord
2
STANDARD
70
0
0
ENDTAB
0
TABLE
2
VIEW
5
6
100
AcDbSymbolTable
70
0
0
ENDTAB
0
TABLE
2
UCS
5
7
100
AcDbSymbolTable
70
0
0
ENDTAB
0
TABLE
2
APPID
5
9
100
AcDbSymbolTable
70
2
0
APPID
5
12
100
AcDbSymbolTableRecord
100
AcDbRegAppTableRecord
2
ACAD
70
0
0
ENDTAB
0
TABLE
2
DIMSTYLE
5
A
100
AcDbSymbolTable
70
1
0
ENDTAB
0
TABLE
2
BLOCK_RECORD
5
1
100
AcDbSymbolTable
70
1
0
BLOCK_RECORD
5
1F
100
AcDbSymbolTableRecord
100
AcDbBlockTableRecord
2
*MODEL_SPACE
0
BLOCK_RECORD
5
1B
100
AcDbSymbolTableRecord
100
AcDbBlockTableRecord
2
*PAPER_SPACE
0
ENDTAB
0
ENDSEC
0
SECTION
2
BLOCKS
0
BLOCK
5
20
100
AcDbEntity
100
AcDbBlockBegin
2
*MODEL_SPACE
0
ENDBLK
5
21
100
AcDbEntity
100
AcDbBlockEnd
0
BLOCK
5
1C
100
AcDbEntity
100
AcDbBlockBegin
2
*PAPER_SPACE
0
ENDBLK
5
1D
100
AcDbEntity
100
AcDbBlockEnd
0
ENDSEC
0
SECTION
2
ENTITIES
0
CIRCLE
5
100
100
AcDbEntity
8
0
100
AcDbCircle
10
-21.899999997989617
20
14.999999999592923
30
0
40
0.99999999999999645
210
1.5407439555097897e-33
220
-6.162975822039154e-33
230
1
0
CIRCLE
5
101
100
AcDbEntity
8
0
100
AcDbCircle
10
81.964059407357126
20
15.013802949106312
30
0
40
0.99999999999999645
210
1.5407439555097897e-33
220
-6.162975822039154e-33
230
1
0
CIRCLE
5
102
100
AcDbEntity
8
0
100
AcDbCircle
10
-0.035940592642873533
20
0.013802949106320741
30
0
40
18.250000000000004
210
3.0814879110195774e-33
220
1.1973985901213036e-48
230
1
0
CIRCLE
5
103
100
AcDbEntity
8
0
100
AcDbCircle
10
59.964059407357126
20
0.01380294910631741
30
0
40
18.25
210
1.5407439555097897e-33
220
-6.162975822039154e-33
230
1
0
LWPOLYLINE
5
104
100
AcDbEntity
8
0
100
AcDbPolyline
90
4
70
1
43
0.0
10
31.46405940735713
20
-17.486197050893683
10
28.464059407357134
20
-17.486197050893683
10
28.464059407357126
20
2.5138029491063141
10
31.464059407357126
20
2.5138029491063141
0
LWPOLYLINE
5
105
100
AcDbEntity
8
0
100
AcDbPolyline
90
4
70
1
43
0.0
10
-20.223325018569639
20
21.1566742377737
10
-5.7224004259831842
20
27.918566425624924
42
-0.99999999999999989
10
-4.0319273790203898
20
24.29333527747832
10
-18.53285197160686
20
17.531443089627132
42
-0.99999999999999989
0
LWPOLYLINE
5
106
100
AcDbEntity
8
0
100
AcDbPolyline
90
4
70
1
43
0.0
10
78.460970786321056
20
17.531443089627107
10
63.960046193734613
20
24.293335277478306
42
-0.99999999999999989
10
65.650519240697449
20
27.918566425624892
10
80.151443795085839
20
21.156674255585699
42
-1.0000000105367122
0
LWPOLYLINE
5
107
100
AcDbEntity
8
0
100
AcDbPolyline
90
6
70
1
43
0.0
10
42.960472316858301
20
-25.585907398334918
42
0.42598156754930999
10
44.375593258762827
20
-23.072457037809741
42
0.40254268207217236
10
41.960748244678726
20
-21.712852756796547
42
-0.12698045519141449
10
17.967370570035541
20
-21.712852756796558
42
0.40254267340736216
10
15.552525573158853
20
-23.072456980693087
42
0.4259815763589237
10
16.967646497855945
20
-25.585907398334914
42
0.12698045521566009
0
LWPOLYLINE
5
108
100
AcDbEntity
8
0
100
AcDbPolyline
90
8
70
1
43
0.0
10
89.964059407357126
20
17.513802949106307
42
0.41421356237309531
10
74.964059407357112
20
32.513802949106307
10
-15.035940592642891
20
32.513802949106314
42
0.41421356237309503
10
-30.035940592642874
20
17.513802949106314
10
-30.035940592642874
20
-17.486197050893676
42
0.41421356237309553
10
-15.035940592642872
20
-32.486197050893665
10
74.964059407357126
20
-32.486197050893672
42
0.41421356237309465
10
89.964059407357126
20
-17.486197050893686
0
ENDSEC
0
SECTION
2
OBJECTS
0
DICTIONARY
5
C
100
AcDbDictionary
3
ACAD_GROUP
350
D
3
ACAD_MLINESTYLE
350
17
0
DICTIONARY
5
D
100
AcDbDictionary
0
DICTIONARY
5
1A
330
C
100
AcDbDictionary
0
DICTIONARY
5
17
100
AcDbDictionary
0
ENDSEC
0
EOF
