G04*
G04 #@! TF.GenerationSoftware,Altium Limited,Altium Designer,18.1.7 (191)*
G04*
G04 Layer_Color=16711935*
%FSLAX44Y44*%
%MOMM*%
G71*
G01*
G75*
%ADD94C,1.0032*%
%ADD106C,1.6000*%
%ADD107R,1.6000X1.6000*%
%ADD108C,2.2032*%
%ADD109C,3.1000*%
G04:AMPARAMS|DCode=110|XSize=2.2032mm|YSize=2.2032mm|CornerRadius=0.6016mm|HoleSize=0mm|Usage=FLASHONLY|Rotation=0.000|XOffset=0mm|YOffset=0mm|HoleType=Round|Shape=RoundedRectangle|*
%AMROUNDEDRECTD110*
21,1,2.2032,1.0000,0,0,0.0*
21,1,1.0000,2.2032,0,0,0.0*
1,1,1.2032,0.5000,-0.5000*
1,1,1.2032,-0.5000,-0.5000*
1,1,1.2032,-0.5000,0.5000*
1,1,1.2032,0.5000,0.5000*
%
%ADD110ROUNDEDRECTD110*%
G04:AMPARAMS|DCode=111|XSize=2.2032mm|YSize=2.2032mm|CornerRadius=0.6016mm|HoleSize=0mm|Usage=FLASHONLY|Rotation=270.000|XOffset=0mm|YOffset=0mm|HoleType=Round|Shape=RoundedRectangle|*
%AMROUNDEDRECTD111*
21,1,2.2032,1.0000,0,0,270.0*
21,1,1.0000,2.2032,0,0,270.0*
1,1,1.2032,-0.5000,-0.5000*
1,1,1.2032,-0.5000,0.5000*
1,1,1.2032,0.5000,0.5000*
1,1,1.2032,0.5000,-0.5000*
%
%ADD111ROUNDEDRECTD111*%
%ADD112C,0.1000*%
%ADD113R,0.1000X0.1000*%
%ADD114O,1.1000X2.0000*%
%ADD115O,1.1000X1.6000*%
%ADD116C,4.1000*%
%ADD117C,1.7032*%
%ADD118O,1.8000X2.1000*%
%ADD119R,1.8000X2.1000*%
D94*
X425000Y103878D02*
D03*
X103753Y319000D02*
D03*
X918000Y252000D02*
D03*
D106*
X492000Y228000D02*
D03*
X482000Y248000D02*
D03*
X472000Y228000D02*
D03*
X462000Y248000D02*
D03*
X452000Y228000D02*
D03*
X442000Y248000D02*
D03*
X432000Y228000D02*
D03*
X422000Y248000D02*
D03*
X412000Y228000D02*
D03*
X402000Y248000D02*
D03*
X392000Y228000D02*
D03*
X382000Y248000D02*
D03*
X372000Y228000D02*
D03*
D107*
X362000Y248000D02*
D03*
D108*
X87500Y257100D02*
D03*
Y307900D02*
D03*
X15000Y331800D02*
D03*
X711900Y534600D02*
D03*
X737300D02*
D03*
X762700D02*
D03*
X686500D02*
D03*
X661100D02*
D03*
X711800Y502000D02*
D03*
X737200D02*
D03*
X762600D02*
D03*
X686400D02*
D03*
X661000D02*
D03*
X983000Y534900D02*
D03*
Y509500D02*
D03*
X665000Y78200D02*
D03*
X974100Y333500D02*
D03*
X1024900D02*
D03*
X891600Y496000D02*
D03*
X942400D02*
D03*
Y459500D02*
D03*
X891600D02*
D03*
X53500Y481600D02*
D03*
Y532400D02*
D03*
X17500D02*
D03*
Y481600D02*
D03*
X17000Y203500D02*
D03*
Y293500D02*
D03*
X52000Y203500D02*
D03*
Y293500D02*
D03*
X128553Y230000D02*
D03*
X179352D02*
D03*
X354400Y364500D02*
D03*
X303600Y364500D02*
D03*
X619600Y358500D02*
D03*
X670400D02*
D03*
X588415D02*
D03*
X537615D02*
D03*
X589400Y320000D02*
D03*
X538600D02*
D03*
X619700Y315000D02*
D03*
X670500D02*
D03*
D109*
X960000Y194000D02*
D03*
Y147000D02*
D03*
Y100000D02*
D03*
D110*
X15000Y357200D02*
D03*
X983000Y484100D02*
D03*
X665000Y52800D02*
D03*
D111*
X788100Y534600D02*
D03*
X788000Y502000D02*
D03*
D112*
X819647Y323572D02*
D03*
X897428Y401354D02*
D03*
X819647Y101572D02*
D03*
X897428Y179354D02*
D03*
D113*
X248500Y94700D02*
D03*
X348500D02*
D03*
D114*
X84800Y23750D02*
D03*
X197200D02*
D03*
D115*
Y63750D02*
D03*
X84800D02*
D03*
D116*
X183750Y106500D02*
D03*
X916250D02*
D03*
X1003500Y404950D02*
D03*
Y25000D02*
D03*
X33500D02*
D03*
Y405000D02*
D03*
D117*
X885000Y252000D02*
D03*
Y287000D02*
D03*
X603000Y506000D02*
D03*
X568000D02*
D03*
X432000Y504500D02*
D03*
X467000Y504500D02*
D03*
D118*
X457500Y313000D02*
D03*
X437500Y313000D02*
D03*
X417500Y313000D02*
D03*
X573000Y265000D02*
D03*
X593000D02*
D03*
X613000D02*
D03*
D119*
X397500Y313000D02*
D03*
X633000Y265000D02*
D03*
M02*
