G04*
G04 #@! TF.GenerationSoftware,Altium Limited,Altium Designer,18.1.7 (191)*
G04*
G04 Layer_Color=255*
%FSLAX44Y44*%
%MOMM*%
G71*
G01*
G75*
%ADD12R,0.6000X0.6000*%
G04:AMPARAMS|DCode=13|XSize=1.55mm|YSize=0.67mm|CornerRadius=0.0335mm|HoleSize=0mm|Usage=FLASHONLY|Rotation=90.000|XOffset=0mm|YOffset=0mm|HoleType=Round|Shape=RoundedRectangle|*
%AMROUNDEDRECTD13*
21,1,1.5500,0.6030,0,0,90.0*
21,1,1.4830,0.6700,0,0,90.0*
1,1,0.0670,0.3015,0.7415*
1,1,0.0670,0.3015,-0.7415*
1,1,0.0670,-0.3015,-0.7415*
1,1,0.0670,-0.3015,0.7415*
%
%ADD13ROUNDEDRECTD13*%
%ADD14R,0.6000X0.6000*%
%ADD15R,0.4000X0.7500*%
%ADD16R,0.8000X0.4000*%
%ADD17R,0.4000X0.8000*%
%ADD18R,0.4000X0.4000*%
%ADD19R,1.0000X1.0000*%
%ADD20R,0.5000X1.2000*%
%ADD21R,0.7000X1.2000*%
%ADD22R,0.4500X1.2000*%
%ADD23R,0.5500X1.2000*%
%ADD24R,1.0000X0.5500*%
%ADD25R,0.9000X0.9000*%
%ADD26R,0.9000X0.9000*%
%ADD27R,0.9000X0.8000*%
%ADD28R,1.7000X1.1500*%
%ADD29R,0.6300X0.3000*%
%ADD30R,0.3000X0.6300*%
%ADD31R,1.7500X1.7500*%
%ADD32R,1.2300X1.2300*%
%ADD33R,0.8000X0.3000*%
%ADD34R,0.3000X0.8000*%
G04:AMPARAMS|DCode=35|XSize=1.7mm|YSize=1.2mm|CornerRadius=0mm|HoleSize=0mm|Usage=FLASHONLY|Rotation=225.000|XOffset=0mm|YOffset=0mm|HoleType=Round|Shape=Rectangle|*
%AMROTATEDRECTD35*
4,1,4,0.1768,1.0253,1.0253,0.1768,-0.1768,-1.0253,-1.0253,-0.1768,0.1768,1.0253,0.0*
%
%ADD35ROTATEDRECTD35*%

G04:AMPARAMS|DCode=36|XSize=1.4mm|YSize=1.9mm|CornerRadius=0mm|HoleSize=0mm|Usage=FLASHONLY|Rotation=225.000|XOffset=0mm|YOffset=0mm|HoleType=Round|Shape=Rectangle|*
%AMROTATEDRECTD36*
4,1,4,-0.1768,1.1667,1.1667,-0.1768,0.1768,-1.1667,-1.1667,0.1768,-0.1768,1.1667,0.0*
%
%ADD36ROTATEDRECTD36*%

%ADD37P,0.8485X4X360.0*%
%ADD38P,0.8485X4X270.0*%
%ADD39R,2.5000X1.2000*%
%ADD40R,0.3500X0.6300*%
%ADD41R,0.5800X0.3000*%
%ADD42O,1.2500X0.2500*%
%ADD43C,0.2500*%
%ADD44O,1.2500X0.2500*%
%ADD45R,0.9000X1.3000*%
%ADD46C,0.2300*%
%ADD47R,3.7000X1.1000*%
%ADD48R,1.8500X3.1250*%
%ADD49R,0.5500X1.3000*%
%ADD50R,0.8000X1.5000*%
%ADD51R,0.8000X0.9000*%
%ADD52R,0.4500X1.5500*%
%ADD53R,0.6000X1.5000*%
%ADD54R,1.5000X2.3400*%
%ADD55R,3.5100X2.6200*%
G04:AMPARAMS|DCode=56|XSize=1.55mm|YSize=0.6mm|CornerRadius=0.03mm|HoleSize=0mm|Usage=FLASHONLY|Rotation=270.000|XOffset=0mm|YOffset=0mm|HoleType=Round|Shape=RoundedRectangle|*
%AMROUNDEDRECTD56*
21,1,1.5500,0.5400,0,0,270.0*
21,1,1.4900,0.6000,0,0,270.0*
1,1,0.0600,-0.2700,-0.7450*
1,1,0.0600,-0.2700,0.7450*
1,1,0.0600,0.2700,0.7450*
1,1,0.0600,0.2700,-0.7450*
%
%ADD56ROUNDEDRECTD56*%
%ADD57R,0.3000X1.1000*%
%ADD58R,0.6000X1.1000*%
%ADD120C,0.8000*%
%ADD130C,1.5000*%
%ADD131R,1.5000X1.5000*%
%ADD132C,2.0000*%
%ADD133C,3.0000*%
G04:AMPARAMS|DCode=134|XSize=2mm|YSize=2mm|CornerRadius=0.5mm|HoleSize=0mm|Usage=FLASHONLY|Rotation=0.000|XOffset=0mm|YOffset=0mm|HoleType=Round|Shape=RoundedRectangle|*
%AMROUNDEDRECTD134*
21,1,2.0000,1.0000,0,0,0.0*
21,1,1.0000,2.0000,0,0,0.0*
1,1,1.0000,0.5000,-0.5000*
1,1,1.0000,-0.5000,-0.5000*
1,1,1.0000,-0.5000,0.5000*
1,1,1.0000,0.5000,0.5000*
%
%ADD134ROUNDEDRECTD134*%
G04:AMPARAMS|DCode=135|XSize=2mm|YSize=2mm|CornerRadius=0.5mm|HoleSize=0mm|Usage=FLASHONLY|Rotation=270.000|XOffset=0mm|YOffset=0mm|HoleType=Round|Shape=RoundedRectangle|*
%AMROUNDEDRECTD135*
21,1,2.0000,1.0000,0,0,270.0*
21,1,1.0000,2.0000,0,0,270.0*
1,1,1.0000,-0.5000,-0.5000*
1,1,1.0000,-0.5000,0.5000*
1,1,1.0000,0.5000,0.5000*
1,1,1.0000,0.5000,-0.5000*
%
%ADD135ROUNDEDRECTD135*%
%ADD136O,1.0000X1.9000*%
%ADD137O,1.0000X1.5000*%
%ADD138C,4.0000*%
%ADD139O,1.7000X2.0000*%
%ADD140R,1.7000X2.0000*%
D12*
X577900Y63300D02*
D03*
X577901Y52299D02*
D03*
X567000Y63300D02*
D03*
X567001Y52299D02*
D03*
X556000Y63300D02*
D03*
X556001Y52299D02*
D03*
X124001Y454999D02*
D03*
X124000Y466000D02*
D03*
X194499Y273001D02*
D03*
X194500Y262000D02*
D03*
X228499Y273001D02*
D03*
X228500Y262000D02*
D03*
X147501Y333499D02*
D03*
X147500Y344500D02*
D03*
X158500D02*
D03*
X158501Y333499D02*
D03*
X169499Y344501D02*
D03*
X169500Y333500D02*
D03*
X191499Y344276D02*
D03*
X191500Y333275D02*
D03*
X206999Y344501D02*
D03*
X207000Y333500D02*
D03*
X194499Y295001D02*
D03*
X194500Y284000D02*
D03*
X943999Y282719D02*
D03*
X944000Y271719D02*
D03*
X248999Y344501D02*
D03*
X249000Y333500D02*
D03*
X397999Y421001D02*
D03*
X398000Y410000D02*
D03*
X387001Y409999D02*
D03*
X387000Y421000D02*
D03*
X387001Y387999D02*
D03*
X387000Y399000D02*
D03*
X397999Y399001D02*
D03*
X398000Y388000D02*
D03*
X240999Y273001D02*
D03*
X241000Y262000D02*
D03*
X975502Y248875D02*
D03*
X975501Y259876D02*
D03*
X986501Y248875D02*
D03*
X986500Y259876D02*
D03*
X930499Y263001D02*
D03*
X930500Y252000D02*
D03*
X758501Y118499D02*
D03*
X758500Y129500D02*
D03*
X758502Y96499D02*
D03*
X758501Y107500D02*
D03*
X730000Y142000D02*
D03*
X729999Y153001D02*
D03*
X730001Y119999D02*
D03*
X730000Y131000D02*
D03*
X708999Y140501D02*
D03*
X709000Y129500D02*
D03*
X500001Y76499D02*
D03*
X500000Y87500D02*
D03*
X455749Y94401D02*
D03*
X455750Y83400D02*
D03*
X497499Y187001D02*
D03*
X497500Y176000D02*
D03*
X330500Y233500D02*
D03*
X330499Y244501D02*
D03*
X142001Y283999D02*
D03*
X142000Y295000D02*
D03*
X158999Y169501D02*
D03*
X159000Y158500D02*
D03*
X158999Y144565D02*
D03*
X159000Y133564D02*
D03*
X41001Y77999D02*
D03*
X41000Y89000D02*
D03*
X30001Y77999D02*
D03*
X30000Y89000D02*
D03*
X19000Y78000D02*
D03*
X18999Y89001D02*
D03*
X8001Y77999D02*
D03*
X8000Y89000D02*
D03*
X293500Y154000D02*
D03*
X293501Y142999D02*
D03*
X330500Y222500D02*
D03*
X330501Y211499D02*
D03*
X180500Y333500D02*
D03*
X180499Y344501D02*
D03*
X237999D02*
D03*
X238000Y333500D02*
D03*
D13*
X279000Y246000D02*
D03*
X266300Y246000D02*
D03*
X253600D02*
D03*
X240900D02*
D03*
X228200D02*
D03*
X291700D02*
D03*
X202800Y193000D02*
D03*
X215500D02*
D03*
X228200D02*
D03*
X240900Y193000D02*
D03*
X253600D02*
D03*
X266300Y193000D02*
D03*
X279000D02*
D03*
X291700D02*
D03*
X215500Y246000D02*
D03*
X202800D02*
D03*
D14*
X80001Y178251D02*
D03*
X69000Y178250D02*
D03*
X102001Y178251D02*
D03*
X91000Y178250D02*
D03*
X90999Y167249D02*
D03*
X102000Y167250D02*
D03*
X113289Y414998D02*
D03*
X124290Y414999D02*
D03*
X90999D02*
D03*
X102000Y415000D02*
D03*
X621001Y123631D02*
D03*
X610000Y123630D02*
D03*
X291001Y443501D02*
D03*
X280000Y443500D02*
D03*
X291001Y432501D02*
D03*
X280000Y432500D02*
D03*
X279999Y421499D02*
D03*
X291000Y421500D02*
D03*
X279999Y410499D02*
D03*
X291000Y410500D02*
D03*
X437001Y437001D02*
D03*
X426000Y437000D02*
D03*
X398001Y377001D02*
D03*
X387000Y377000D02*
D03*
X411499Y376723D02*
D03*
X422500Y376724D02*
D03*
X411499Y365499D02*
D03*
X422500Y365500D02*
D03*
X411538Y354499D02*
D03*
X422539Y354500D02*
D03*
X444501Y369537D02*
D03*
X433500Y369536D02*
D03*
X444501Y359001D02*
D03*
X433500Y359000D02*
D03*
X643901Y462401D02*
D03*
X632900Y462400D02*
D03*
X617501Y465501D02*
D03*
X606500Y465500D02*
D03*
X686999Y146999D02*
D03*
X698000Y147000D02*
D03*
X686999Y98999D02*
D03*
X698000Y99000D02*
D03*
X601602Y134501D02*
D03*
X590601Y134500D02*
D03*
X511001Y65501D02*
D03*
X500000Y65500D02*
D03*
X521999Y65499D02*
D03*
X533000Y65500D02*
D03*
X481999Y104499D02*
D03*
X493000Y104500D02*
D03*
X482001Y93501D02*
D03*
X471000Y93500D02*
D03*
X482001Y82501D02*
D03*
X471000Y82500D02*
D03*
X495800Y203001D02*
D03*
X484799Y203000D02*
D03*
X475499Y192499D02*
D03*
X486500Y192500D02*
D03*
X366499Y168499D02*
D03*
X377500Y168500D02*
D03*
X338499Y142999D02*
D03*
X349500Y143000D02*
D03*
X67501Y75001D02*
D03*
X56500Y75000D02*
D03*
X698000Y135750D02*
D03*
X686999Y135749D02*
D03*
X601500Y98000D02*
D03*
X590499Y97999D02*
D03*
X590500Y147000D02*
D03*
X601501Y147001D02*
D03*
X580400Y462400D02*
D03*
X591401Y462401D02*
D03*
D15*
X117315Y275000D02*
D03*
X123815D02*
D03*
X130315D02*
D03*
Y294500D02*
D03*
X117315D02*
D03*
D16*
X262500Y471000D02*
D03*
Y463000D02*
D03*
Y455000D02*
D03*
Y447000D02*
D03*
Y439000D02*
D03*
Y431000D02*
D03*
Y423000D02*
D03*
Y415000D02*
D03*
Y407000D02*
D03*
Y399000D02*
D03*
Y391000D02*
D03*
Y383000D02*
D03*
Y375000D02*
D03*
X144500D02*
D03*
Y383000D02*
D03*
Y391000D02*
D03*
Y399000D02*
D03*
Y407000D02*
D03*
Y415000D02*
D03*
Y423000D02*
D03*
Y431000D02*
D03*
Y439000D02*
D03*
Y447000D02*
D03*
Y455000D02*
D03*
Y463000D02*
D03*
Y471000D02*
D03*
D17*
X255500Y362500D02*
D03*
X247500D02*
D03*
X239500D02*
D03*
X231500D02*
D03*
X223500D02*
D03*
X215500D02*
D03*
X207500D02*
D03*
X199500D02*
D03*
X191500D02*
D03*
X183500D02*
D03*
X175500D02*
D03*
X167500D02*
D03*
X159500D02*
D03*
X151500D02*
D03*
X255500Y483500D02*
D03*
X247500D02*
D03*
X239500D02*
D03*
X231500D02*
D03*
X223500D02*
D03*
X215500D02*
D03*
X207500D02*
D03*
X199500D02*
D03*
X191500D02*
D03*
X183500D02*
D03*
X175500D02*
D03*
X167500D02*
D03*
X159500D02*
D03*
X151500D02*
D03*
D18*
X191500Y435000D02*
D03*
D19*
X203500Y438000D02*
D03*
X218500D02*
D03*
Y423000D02*
D03*
X203500D02*
D03*
X188500D02*
D03*
Y408000D02*
D03*
X203500D02*
D03*
X218500D02*
D03*
D20*
X115500Y531875D02*
D03*
X953500D02*
D03*
D21*
X104500D02*
D03*
X942500D02*
D03*
D22*
X94250D02*
D03*
X932250D02*
D03*
D23*
X84250D02*
D03*
X922250D02*
D03*
D24*
X118000Y531125D02*
D03*
X82000D02*
D03*
X956000D02*
D03*
X920000D02*
D03*
D25*
X111500Y469000D02*
D03*
Y452000D02*
D03*
X573400Y387900D02*
D03*
Y403900D02*
D03*
X587400Y387900D02*
D03*
Y403900D02*
D03*
X629400Y387900D02*
D03*
Y403900D02*
D03*
X643400Y387900D02*
D03*
Y403900D02*
D03*
D26*
X85000Y427500D02*
D03*
X102000D02*
D03*
X423000Y449500D02*
D03*
X440000Y449500D02*
D03*
X629900Y474900D02*
D03*
X646900D02*
D03*
X577400D02*
D03*
X594400D02*
D03*
X704000Y86500D02*
D03*
X687000Y86500D02*
D03*
X704000Y72500D02*
D03*
X687000D02*
D03*
X607500Y71500D02*
D03*
X590500D02*
D03*
X607500Y85500D02*
D03*
X590500D02*
D03*
X53500Y87500D02*
D03*
X70500D02*
D03*
D27*
X227000Y295500D02*
D03*
X207000Y286000D02*
D03*
Y305000D02*
D03*
X241000Y295500D02*
D03*
X261000Y305000D02*
D03*
Y286000D02*
D03*
D28*
X401500Y435750D02*
D03*
Y467250D02*
D03*
X462500Y419250D02*
D03*
X462500Y450750D02*
D03*
D29*
X445850Y400000D02*
D03*
Y405000D02*
D03*
X445850Y410000D02*
D03*
Y415000D02*
D03*
X418150D02*
D03*
Y410000D02*
D03*
X418150Y405000D02*
D03*
Y400000D02*
D03*
D30*
X439500Y421350D02*
D03*
X434500D02*
D03*
X429500D02*
D03*
X424500D02*
D03*
Y393650D02*
D03*
X429500Y393650D02*
D03*
X434500D02*
D03*
X439500D02*
D03*
D31*
X432000Y407500D02*
D03*
D32*
X641400Y435900D02*
D03*
X585400Y435900D02*
D03*
D33*
X655650Y443400D02*
D03*
X655650Y438400D02*
D03*
X655650Y433400D02*
D03*
Y428400D02*
D03*
X627150D02*
D03*
X627150Y433400D02*
D03*
Y438400D02*
D03*
X627150Y443400D02*
D03*
X599650D02*
D03*
Y438400D02*
D03*
Y433400D02*
D03*
X599650Y428400D02*
D03*
X571150D02*
D03*
X571150Y433400D02*
D03*
Y438400D02*
D03*
X571150Y443400D02*
D03*
D34*
X648900Y421650D02*
D03*
X643900D02*
D03*
X638900D02*
D03*
X633900D02*
D03*
X633900Y450150D02*
D03*
X638900D02*
D03*
X643900D02*
D03*
X648900Y450150D02*
D03*
X592900Y421650D02*
D03*
X587900D02*
D03*
X582900D02*
D03*
X577900D02*
D03*
Y450150D02*
D03*
X582900D02*
D03*
X587900D02*
D03*
X592900D02*
D03*
D35*
X748229Y392868D02*
D03*
X769442Y371655D02*
D03*
X790655Y350442D02*
D03*
X828132Y472771D02*
D03*
X849345Y451558D02*
D03*
X870558Y430345D02*
D03*
X748229Y170868D02*
D03*
X769442Y149655D02*
D03*
X790655Y128442D02*
D03*
X828132Y250771D02*
D03*
X849345Y229558D02*
D03*
X870558Y208345D02*
D03*
D36*
X751411Y420092D02*
D03*
X800908Y469589D02*
D03*
X839092Y332411D02*
D03*
X888589Y381908D02*
D03*
X751411Y198092D02*
D03*
X800908Y247589D02*
D03*
X839092Y110411D02*
D03*
X888589Y159908D02*
D03*
D37*
X842111Y486110D02*
D03*
X849889Y493889D02*
D03*
X724222Y369221D02*
D03*
X732000Y377000D02*
D03*
X708611Y353610D02*
D03*
X716389Y361389D02*
D03*
X767111Y327110D02*
D03*
X774889Y334889D02*
D03*
X751611Y311610D02*
D03*
X759389Y319389D02*
D03*
X801889Y289390D02*
D03*
X794111Y281611D02*
D03*
D38*
X708610Y384889D02*
D03*
X716389Y377111D02*
D03*
X802110Y304889D02*
D03*
X809889Y297111D02*
D03*
X825390Y281611D02*
D03*
X817611Y289389D02*
D03*
X897110Y213389D02*
D03*
X904889Y205611D02*
D03*
D39*
X919500Y332500D02*
D03*
Y289500D02*
D03*
D40*
X950500Y250350D02*
D03*
Y259650D02*
D03*
D41*
X944100Y250000D02*
D03*
Y255000D02*
D03*
Y260000D02*
D03*
X956900D02*
D03*
Y255000D02*
D03*
Y250000D02*
D03*
D42*
X956500Y230000D02*
D03*
Y225000D02*
D03*
D43*
X946500Y230000D02*
D03*
Y225000D02*
D03*
D44*
X936500Y230000D02*
D03*
Y225000D02*
D03*
D45*
X687001Y161501D02*
D03*
X708001D02*
D03*
X687001Y56501D02*
D03*
X708001D02*
D03*
X687001Y38501D02*
D03*
X708001D02*
D03*
X590501Y161501D02*
D03*
X611501D02*
D03*
X590001Y37501D02*
D03*
X611001D02*
D03*
X590001Y55501D02*
D03*
X611001D02*
D03*
D46*
X695000Y125500D02*
D03*
Y121500D02*
D03*
Y117500D02*
D03*
X691000Y125500D02*
D03*
X691000Y121500D02*
D03*
X691000Y117500D02*
D03*
X687000Y125500D02*
D03*
Y121500D02*
D03*
Y117500D02*
D03*
X598500Y124500D02*
D03*
Y120500D02*
D03*
Y116500D02*
D03*
X594500Y124500D02*
D03*
X594500Y120500D02*
D03*
X594500Y116500D02*
D03*
X590500Y124500D02*
D03*
X590500Y120500D02*
D03*
X590500Y116500D02*
D03*
D47*
X658000Y102000D02*
D03*
Y132000D02*
D03*
X561500Y101000D02*
D03*
X561500Y131000D02*
D03*
D48*
X516500Y41500D02*
D03*
D49*
X501500Y50620D02*
D03*
X531500D02*
D03*
X531500Y17620D02*
D03*
X501500D02*
D03*
D50*
X516500Y18620D02*
D03*
D51*
X342000Y178750D02*
D03*
X332500Y198750D02*
D03*
X351500D02*
D03*
X372000D02*
D03*
X378500Y181250D02*
D03*
X365500D02*
D03*
D52*
X462250Y120500D02*
D03*
X468750D02*
D03*
X475250D02*
D03*
X481750D02*
D03*
X455750Y120500D02*
D03*
X449250Y120500D02*
D03*
X442750D02*
D03*
X436250D02*
D03*
X429750D02*
D03*
X423250D02*
D03*
X416750D02*
D03*
X410250D02*
D03*
Y176500D02*
D03*
X416750D02*
D03*
X481750Y176500D02*
D03*
X475250Y176500D02*
D03*
X468750D02*
D03*
X462250D02*
D03*
X455750D02*
D03*
X449250D02*
D03*
X442750D02*
D03*
X436250D02*
D03*
X429750D02*
D03*
X423250D02*
D03*
D53*
X327500Y124200D02*
D03*
X316500D02*
D03*
X305500D02*
D03*
X294500D02*
D03*
X283500D02*
D03*
X272500D02*
D03*
X261500D02*
D03*
X250500D02*
D03*
X349500D02*
D03*
X338500D02*
D03*
D54*
X226800Y46500D02*
D03*
X370200D02*
D03*
D55*
X49501Y131866D02*
D03*
D56*
X30450Y159000D02*
D03*
X43150D02*
D03*
X55850D02*
D03*
X68550D02*
D03*
Y105000D02*
D03*
X55850D02*
D03*
X43150D02*
D03*
X30450D02*
D03*
D57*
X158500Y75250D02*
D03*
X153500D02*
D03*
X148500D02*
D03*
X143520D02*
D03*
X138500D02*
D03*
X133500D02*
D03*
X128500D02*
D03*
X123500D02*
D03*
D58*
X173000D02*
D03*
X165000D02*
D03*
X117000D02*
D03*
X109000D02*
D03*
D120*
X622000Y139130D02*
D03*
D130*
X492000Y228000D02*
D03*
X482000Y248000D02*
D03*
X472000Y228000D02*
D03*
X462000Y248000D02*
D03*
X452000Y228000D02*
D03*
X442000Y248000D02*
D03*
X432000Y228000D02*
D03*
X422000Y248000D02*
D03*
X412000Y228000D02*
D03*
X402000Y248000D02*
D03*
X392000Y228000D02*
D03*
X382000Y248000D02*
D03*
X372000Y228000D02*
D03*
X885000Y252000D02*
D03*
Y287000D02*
D03*
X603000Y506000D02*
D03*
X568000D02*
D03*
X432000Y504500D02*
D03*
X467000Y504500D02*
D03*
D131*
X362000Y248000D02*
D03*
D132*
X87500Y257100D02*
D03*
Y307900D02*
D03*
X15000Y331800D02*
D03*
X711900Y534600D02*
D03*
X737300D02*
D03*
X762700D02*
D03*
X686500D02*
D03*
X661100D02*
D03*
X711800Y502000D02*
D03*
X737200D02*
D03*
X762600D02*
D03*
X686400D02*
D03*
X661000D02*
D03*
X983000Y534900D02*
D03*
Y509500D02*
D03*
X665000Y78200D02*
D03*
X974100Y333500D02*
D03*
X1024900D02*
D03*
X891600Y496000D02*
D03*
X942400D02*
D03*
Y459500D02*
D03*
X891600D02*
D03*
X53500Y481600D02*
D03*
Y532400D02*
D03*
X17500D02*
D03*
Y481600D02*
D03*
X17000Y203500D02*
D03*
Y293500D02*
D03*
X52000Y203500D02*
D03*
Y293500D02*
D03*
X128553Y230000D02*
D03*
X179352D02*
D03*
X354400Y364500D02*
D03*
X303600Y364500D02*
D03*
X619600Y358500D02*
D03*
X670400D02*
D03*
X588415D02*
D03*
X537615D02*
D03*
X589400Y320000D02*
D03*
X538600D02*
D03*
X619700Y315000D02*
D03*
X670500D02*
D03*
D133*
X960000Y194000D02*
D03*
Y147000D02*
D03*
Y100000D02*
D03*
D134*
X15000Y357200D02*
D03*
X983000Y484100D02*
D03*
X665000Y52800D02*
D03*
D135*
X788100Y534600D02*
D03*
X788000Y502000D02*
D03*
D136*
X84800Y23750D02*
D03*
X197200D02*
D03*
D137*
Y63750D02*
D03*
X84800D02*
D03*
D138*
X183750Y106500D02*
D03*
X916250D02*
D03*
X1003500Y404950D02*
D03*
Y25000D02*
D03*
X33500D02*
D03*
Y405000D02*
D03*
D139*
X457500Y313000D02*
D03*
X437500Y313000D02*
D03*
X417500Y313000D02*
D03*
X573000Y265000D02*
D03*
X593000D02*
D03*
X613000D02*
D03*
D140*
X397500Y313000D02*
D03*
X633000Y265000D02*
D03*
M02*
